<svg xmlns="http://www.w3.org/2000/svg" viewBox="0 0 100 100"><defs><style>.cls-1{fill:none;stroke:#ffe608;stroke-width:5px;}.cls-1,.cls-2,.cls-3{stroke-linecap:round;stroke-linejoin:round;}.cls-2{fill:#46ade8;stroke:#41a0d6;}.cls-2,.cls-3{stroke-width:2.5px;fill-rule:evenodd;}.cls-3{fill:#67c1ed;stroke:#41a6df;}</style></defs><g id="error_state" data-name="error state"><line class="cls-1" x1="5.01" y1="27.88" x2="11.38" y2="29.73"/><line class="cls-1" x1="21.27" y1="11.33" x2="23.05" y2="17.71"/><line class="cls-1" x1="10.99" y1="18.73" x2="15.96" y2="23.09"/><path class="cls-2" d="M94.73,39.73c-.26-4.6-2.91-7.23-5.5-7.75-.8-.16-3.41-.3-6.86-.41l-.58-.05-2.19,0c-4.72-.12-10.32-.2-15-.25l-5.9-.1c-4.56.07-4.6-.76-6.08-2.59l-.05-.06c-2-2.42-3.77-3-6.76-3.1-2.06-.08-5.23-.25-7.19-.24-3.56,0-7.25.11-11.35.45S21.94,28.08,21.13,32c0,0-1.08,3.33-.9,21.13,0,2.74,0,5.24,0,6.88,0,4.55,0,13.23.28,17.83s2.84,7.23,5.43,7.76,24.17.79,31.69.79,29-.27,31.62-.79,5.24-3.16,5.5-7.76S95,64.6,95,60.05,95,44.33,94.73,39.73Z"/><path class="cls-3" d="M93.31,81c-.22,3.84-2.43,4.63-4.59,5.07S62.11,87,55.82,87s-29.94-.22-32.1-.66a7.79,7.79,0,0,1-5.61-5.09c-1.68-5-9.58-29.41-9.36-33.25s2.37-4.91,4.54-5.35S41.09,42,47.37,42s30.17.22,32.33.66,4.89.44,6.56,6.48C87.71,54.32,93.53,77.12,93.31,81Z"/></g></svg>