<svg xmlns="http://www.w3.org/2000/svg" viewBox="0 0 100 100"><defs><style>.cls-1{fill:#fff;}.cls-2{fill:none;}.cls-2,.cls-7{stroke:#88b3e0;stroke-width:1.9px;}.cls-2,.cls-6,.cls-7{stroke-linecap:round;stroke-linejoin:round;}.cls-3{fill:#88b3e0;}.cls-4,.cls-7{fill:#f4b2c4;}.cls-5{fill:#2e91d0;}.cls-6{fill:#ffe608;stroke:#ffe608;stroke-width:1.53px;}</style></defs><g id="error_state" data-name="error state"><path class="cls-1" d="M56.37,88.69a21.19,21.19,0,0,0,6.34,2.81,12.25,12.25,0,0,0,6.89-.37l2.45-1.3a10,10,0,0,0,4.71-7.27c1.19-10.1-9-19.75-10-20.51H16.31c-1,.76-11.17,10.41-10,20.51A10,10,0,0,0,11,89.83l2.45,1.3a12.25,12.25,0,0,0,6.89.37,21.09,21.09,0,0,0,6.34-2.81Z"/><path class="cls-2" d="M72.05,89.83a10,10,0,0,0,4.71-7.27c1.19-10.1-9-19.75-10-20.51H16.31c-1,.76-11.17,10.41-10,20.51A10,10,0,0,0,11,89.83"/><path class="cls-1" d="M72.58,47.64c-.08-1.43-.06-2.88,0-4.32a46.55,46.55,0,0,0-.09-4.77C71.7,27.72,66.78,21,60.88,16.61a27.53,27.53,0,0,0-14.34-5.8s-1.42-.17-2-.22l-1-.07-1,0c-9.18-.36-13.84,2.13-17.28,4.13-6.35,3.7-11.88,9.84-13.87,20.52a43.88,43.88,0,0,0-.62,4.72c-.11,1.44-.26,2.88-.5,4.3a23.59,23.59,0,0,0,0,8.42c1.87,9.83,14.15,14.07,23.19,15.68a58,58,0,0,0,6.63.81,56.91,56.91,0,0,0,6.24,0c9.2-.53,22.35-3.3,25.36-13a23.41,23.41,0,0,0,1-8.37"/><path class="cls-1" d="M65.63,63.66a14.37,14.37,0,0,0,6-7.65,23.38,23.38,0,0,0,1-8.37c-.08-1.43-.06-2.88,0-4.32a46.55,46.55,0,0,0-.09-4.77C71.7,27.72,66.78,21,60.88,16.61A27.6,27.6,0,0,0,46.54,10.8s-1.42-.16-2-.21l-1-.07-1,0c-9.18-.36-13.84,2.13-17.28,4.14C18.82,18.3,13.29,24.44,11.3,35.12a43.88,43.88,0,0,0-.62,4.72c-.11,1.44-.26,2.88-.5,4.3a23.59,23.59,0,0,0,0,8.42c.82,4.29,3.62,7.52,7.27,9.93"/><path class="cls-3" d="M65.63,64.48a.84.84,0,0,1-.68-.36A.81.81,0,0,1,65.18,63a13.56,13.56,0,0,0,5.66-7.22,22.9,22.9,0,0,0,.93-8.08c-.09-1.59-.06-3.18,0-4.4,0-1.61,0-3.18-.08-4.68C71,29.39,67.31,22.41,60.4,17.27a26.73,26.73,0,0,0-14-5.66s-1.4-.16-2-.21l-1-.07-.94,0c-8.63-.34-13.08,1.8-16.89,4-7.36,4.29-11.77,10.81-13.48,20a46.5,46.5,0,0,0-.61,4.64c-.1,1.29-.24,2.82-.51,4.37a22.88,22.88,0,0,0,0,8.13c.7,3.67,3,6.83,6.92,9.4a.82.82,0,0,1,.24,1.13.83.83,0,0,1-1.14.23c-4.27-2.82-6.84-6.34-7.62-10.46a24.48,24.48,0,0,1,0-8.71c.26-1.48.4-3,.5-4.22A44.71,44.71,0,0,1,10.5,35c1.77-9.51,6.57-16.59,14.26-21.07,3-1.73,8-4.63,17.72-4.24l1,0,1,.07c.67.05,2.12.22,2.12.22a28.27,28.27,0,0,1,14.73,6c7.22,5.36,11.23,13,11.92,22.54a42.94,42.94,0,0,1,.09,4.84c0,1.26-.07,2.74,0,4.26a24.49,24.49,0,0,1-1,8.65,15.14,15.14,0,0,1-6.31,8.09.86.86,0,0,1-.46.14"/><path class="cls-1" d="M17.06,9.45c-5.95,1.66-9.94,7.15-10.57,14A18,18,0,0,0,11,37l3.42.73L32.71,14.83l-1.24-3.05c-4.23-2.53-9.7-3.65-14.41-2.33"/><path class="cls-3" d="M11,37.77a.79.79,0,0,1-.6-.26A18.94,18.94,0,0,1,5.68,23.38c.67-7.34,5-13,11.16-14.72a19.68,19.68,0,0,1,15.05,2.42.82.82,0,0,1,.28,1.12.81.81,0,0,1-1.12.28,18.26,18.26,0,0,0-13.77-2.25c-5.54,1.55-9.37,6.65-10,13.29a17.27,17.27,0,0,0,4.31,12.89.81.81,0,0,1,0,1.15.82.82,0,0,1-.55.21"/><path class="cls-4" d="M14.93,28.86a1.14,1.14,0,0,1-2,.06A10.12,10.12,0,0,1,14.7,17.18a9.77,9.77,0,0,1,10.36-1.92,1.09,1.09,0,0,1,.16,2A26.29,26.29,0,0,0,14.93,28.86"/><path class="cls-1" d="M69.67,12.4c5.73,2.32,9.08,8.22,8.93,15.1a18,18,0,0,1-6,12.92l-3.48.34L53.52,16l1.57-2.89c4.49-2,10.06-2.55,14.58-.71"/><path class="cls-3" d="M72.6,41.23A.8.8,0,0,1,72,41a.81.81,0,0,1,.08-1.15,17.24,17.24,0,0,0,5.73-12.32c.14-6.67-3.09-12.16-8.42-14.32a18.26,18.26,0,0,0-13.94.69.81.81,0,0,1-.68-1.48A19.69,19.69,0,0,1,70,11.64c6,2.43,9.6,8.51,9.44,15.88A18.94,18.94,0,0,1,73.13,41a.78.78,0,0,1-.53.2"/><path class="cls-4" d="M69.67,31.93a1.14,1.14,0,0,0,2,.3,10.13,10.13,0,0,0-.48-11.88,9.77,9.77,0,0,0-10.08-3.06,1.09,1.09,0,0,0-.38,1.92,26,26,0,0,1,4.82,4.86,26.37,26.37,0,0,1,4.1,7.86"/><path class="cls-2" d="M14.12,72.94c3.65-5,10.71-10.67,17.65-5.8,5,3.5,3.5,10.07-1.19,13a20.86,20.86,0,0,1-2.47,6.49C24.79,92.34,15.94,93.38,11.35,90"/><path class="cls-2" d="M69.31,72.67c-3.65-5-10.71-10.67-17.65-5.8-5,3.51-3.5,10.07,1.19,13a21.12,21.12,0,0,0,2.46,6.49c3.33,5.74,12.18,6.78,16.77,3.44"/><path class="cls-5" d="M48.88,45.21a5.56,5.56,0,1,0,5.9-5.32,5.61,5.61,0,0,0-5.9,5.32"/><path class="cls-1" d="M51.05,44.17a1.46,1.46,0,1,0,1.55-1.39,1.47,1.47,0,0,0-1.55,1.39"/><path class="cls-5" d="M22.82,43.57a5.56,5.56,0,1,0,5.9-5.31,5.61,5.61,0,0,0-5.9,5.31"/><path class="cls-1" d="M28.79,42.33a1.45,1.45,0,1,0,2.9.18,1.45,1.45,0,1,0-2.9-.18"/><path class="cls-4" d="M41.28,46.54c-2.83-.18-3.51.33-3.56,1.15-.1,1.55,2,3.23,3.28,3.31s3.58-1.33,3.67-2.88c.06-.81-.55-1.4-3.39-1.58"/><path class="cls-3" d="M30.66,55.93h0Z"/><path class="cls-6" d="M78.05,46.06l6.41-7.24L85.2,48l9.19,3-7.77,4.78L92,62.57l-8.82.83-1.78,6.14L76,61.68C80.48,55.5,78.05,46.06,78.05,46.06Z"/><circle class="cls-7" cx="41.37" cy="57.83" r="3.94"/></g></svg>