<svg xmlns="http://www.w3.org/2000/svg" viewBox="0 0 100 100"><defs><style>.cls-1{fill:#67c1ed;}.cls-2{fill:#f7f7f7;}.cls-3,.cls-6{fill:none;}.cls-3{stroke:#41a6df;stroke-width:2.5px;fill-rule:evenodd;}.cls-3,.cls-4,.cls-6{stroke-linecap:round;stroke-linejoin:round;}.cls-4{fill:#2689dd;stroke:#2689dd;stroke-width:1.49px;}.cls-5{fill:#d3d4d9;}.cls-6{stroke:#ffe608;stroke-width:5px;}</style></defs><g id="error_state" data-name="error state"><path class="cls-1" d="M97.62,34.37c-.29-4.6-2.94-7.22-5.53-7.73-.8-.16-3.42-.29-6.87-.39l-.57,0-2.2,0c-4.71-.1-10.32-.17-15-.2l-5.9-.08-3.1,0h-3.1l-5.91.12c-4.67.06-10.27.17-15,.31l-2.19,0-.57.05a66.12,66.12,0,0,0-6.87.44c-2.58.53-5.22,3.17-5.47,7.77-.08,1.57-.14,4.24-.17,7.25L97.82,42C97.78,38.85,97.72,36,97.62,34.37Z"/><path class="cls-2" d="M19.43,78.48c.28,4.6,2.94,7.22,5.53,7.73s24.1.7,31.62.68l2,0h2c7.52,0,29-.37,31.62-.9s5.22-3.18,5.47-7.78.24-16.12.23-20.66c0-2.93,0-9.77-.1-15.51l-78.63-.11c-.07,5.81-.06,12.91-.05,15.91C19.16,62.36,19.15,73.88,19.43,78.48Z"/><path class="cls-3" d="M19.36,34.66c.25-4.6,2.89-7.24,5.47-7.77a66.12,66.12,0,0,1,6.87-.44l.57-.05,2.19,0c4.72-.14,10.32-.25,15-.31l5.91-.12h3.1l3.1,0,5.9.08c4.67,0,10.28.1,15,.2l2.2,0,.57,0c3.45.1,6.07.23,6.87.39,2.59.51,5.24,3.13,5.53,7.73s.28,18.61.3,23.16,0,16.06-.23,20.66S94.8,85.43,92.22,86s-24.1.87-31.62.9h-2l-2,0c-7.52,0-29-.16-31.62-.68s-5.25-3.13-5.53-7.73-.27-16.12-.29-20.66S19.12,39.26,19.36,34.66Z"/><rect class="cls-4" x="30.82" y="19.6" width="5.42" height="13.22" rx="2.71"/><rect class="cls-4" x="54.68" y="19.6" width="5.42" height="13.22" rx="2.71"/><rect class="cls-4" x="78.55" y="19.6" width="5.42" height="13.22" rx="2.71"/><rect class="cls-5" x="25.99" y="47.29" width="14.08" height="14.08" rx="3.32"/><rect class="cls-5" x="42.9" y="47.29" width="14.08" height="14.08" rx="3.32"/><rect class="cls-5" x="59.8" y="47.29" width="14.08" height="14.08" rx="3.32"/><rect class="cls-5" x="76.71" y="47.29" width="14.08" height="14.08" rx="3.32"/><rect class="cls-5" x="25.99" y="64.71" width="14.08" height="14.08" rx="3.32"/><rect class="cls-5" x="42.9" y="64.71" width="14.08" height="14.08" rx="3.32"/><rect class="cls-5" x="59.8" y="64.71" width="14.08" height="14.08" rx="3.32"/><rect class="cls-5" x="76.71" y="64.71" width="14.08" height="14.08" rx="3.32"/><line class="cls-6" x1="3.21" y1="27.96" x2="9.58" y2="29.81"/><line class="cls-6" x1="19.47" y1="11.41" x2="21.26" y2="17.79"/><line class="cls-6" x1="9.2" y1="18.81" x2="14.17" y2="23.17"/></g></svg>