<?xml version="1.0" encoding="UTF-8"?>
<svg width="24px" height="24px" viewBox="0 0 24 24" version="1.1" xmlns="http://www.w3.org/2000/svg" xmlns:xlink="http://www.w3.org/1999/xlink">
    <title>square_foot-24px</title>
    <g id="home-没有list" stroke="none" stroke-width="1" fill="none" fill-rule="evenodd">
        <g id="square_foot-24px">
            <rect id="矩形" x="0" y="0" width="24" height="24"></rect>
            <path d="M17.66,17.66 L16.6,18.72 L15.89,18.01 L16.95,16.95 L15.01,15.01 L13.95,16.07 L13.24,15.36 L14.3,14.3 L12.36,12.36 L11.3,13.42 L10.59,12.71 L11.65,11.65 L9.7,9.7 L8.64,10.76 L7.93,10.05 L8.99,8.99 L7.05,7.05 L5.99,8.11 L5.28,7.4 L6.34,6.34 L4,4 L4,18 C4,19.1 4.9,20 6,20 L20,20 L17.66,17.66 Z M7,17 L7,11.24 L12.76,17 L7,17 Z" id="形状" fill="#0E78D5" fill-rule="nonzero"></path>
        </g>
    </g>
</svg>