<?xml version="1.0" encoding="UTF-8"?>
<svg width="130px" height="133px" viewBox="0 0 130 133" version="1.1" xmlns="http://www.w3.org/2000/svg" xmlns:xlink="http://www.w3.org/1999/xlink">
    <title>coming soon</title>
    <g id="home-没有list" stroke="none" stroke-width="1" fill="none" fill-rule="evenodd">
        <g id="lesson-material-learning-outcome" transform="translate(-324.000000, -601.000000)" fill-rule="nonzero">
            <g id="coming-soon" transform="translate(324.000000, 601.000000)">
                <path d="M110.63294,55.650195 C110.63294,86.2001396 85.8671029,110.965976 55.3157818,110.965976 C24.7658367,110.965976 0,86.2001396 0,55.650195 C0,25.1002499 24.7658367,0.334413198 55.3157818,0.334413198 C85.8671029,0.334413198 110.63294,25.1002499 110.63294,55.650195 Z" id="路径" fill="#F8F8F8"></path>
                <path d="M122.65805,21.9790609 L38.4809026,21.9790609 C35.8248645,21.9790609 33.6711341,19.8253305 33.6711341,17.169292 C33.6711341,14.5132536 35.8248645,12.3595231 38.4809026,12.3595231 L122.65805,12.3595231 C125.314088,12.3595231 127.467818,14.5132536 127.467818,17.169292 C127.467818,19.8253305 125.314088,21.9790609 122.65805,21.9790609 L122.65805,21.9790609 Z" id="路径" fill="#F9F9F9"></path>
                <path d="M122.65805,24.3846334 L38.4809026,24.3846334 C34.5023502,24.3846334 31.2655616,21.1478448 31.2655616,17.169292 C31.2655616,13.1907392 34.5023502,9.95395062 38.4809026,9.95395062 L122.65805,9.95395062 C126.636602,9.95395062 129.873391,13.1907392 129.873391,17.169292 C129.873391,21.1478448 126.636602,24.3846334 122.65805,24.3846334 L122.65805,24.3846334 Z M38.4809026,14.7637195 C37.1556361,14.7637195 36.0753305,15.8426491 36.0753305,17.169292 C36.0753305,18.495935 37.1556361,19.5748645 38.4809026,19.5748645 L122.65805,19.5748645 C123.984692,19.5748645 125.063622,18.495935 125.063622,17.169292 C125.063622,15.8426491 123.984692,14.7637195 122.65805,14.7637195 L38.4809026,14.7637195 Z" id="形状" fill="#DDDDDD"></path>
                <path d="M122.65805,130.206428 L38.4809026,130.206428 C35.8248645,130.206428 33.6711341,128.052697 33.6711341,125.396659 C33.6711341,122.740621 35.8248645,120.58689 38.4809026,120.58689 L122.65805,120.58689 C125.314088,120.58689 127.467818,122.740621 127.467818,125.396659 C127.467818,128.052697 125.314088,130.206428 122.65805,130.206428 L122.65805,130.206428 Z" id="路径" fill="#F9F9F9"></path>
                <path d="M122.65805,132.612 L38.4809026,132.612 C34.5023502,132.612 31.2655616,129.375212 31.2655616,125.396659 C31.2655616,121.418106 34.5023502,118.181318 38.4809026,118.181318 L122.65805,118.181318 C126.636602,118.181318 129.873391,121.418106 129.873391,125.396659 C129.873391,129.375212 126.636602,132.612 122.65805,132.612 L122.65805,132.612 Z M38.4809026,122.991087 C37.1556361,122.991087 36.0753305,124.070016 36.0753305,125.396659 C36.0753305,126.723302 37.1556361,127.802232 38.4809026,127.802232 L122.65805,127.802232 C123.984692,127.802232 125.063622,126.723302 125.063622,125.396659 C125.063622,124.070016 123.984692,122.991087 122.65805,122.991087 L38.4809026,122.991087 Z" id="形状" fill="#DDDDDD"></path>
                <path d="M113.037136,21.9790609 L48.2132874,21.9790609 L48.2132874,30.4935215 C48.2132874,43.938855 54.6978741,56.5584771 65.6289167,64.3848449 L66.0211299,64.6669633 C70.9960407,68.2285313 70.9602601,75.6379148 65.9523205,79.1540692 C54.8327405,86.9570419 48.2132874,99.6908875 48.2132874,113.275216 L48.2132874,120.58689 L113.037136,120.58689 L113.037136,113.023374 C113.037136,99.5780405 106.552549,86.9597941 95.6215067,79.1320502 L95.2292939,78.8499322 C90.2543827,75.2883638 90.2901634,67.8789804 95.298103,64.3642021 C106.419059,56.5598536 113.037136,43.8273841 113.037136,30.2430556 L113.037136,21.9790609 Z" id="路径" fill="#FFFFFF"></path>
                <path d="M113.037136,122.991087 L48.2119113,122.991087 C46.8838923,122.991087 45.8077153,121.916286 45.8077153,120.58689 L45.8077153,113.275216 C45.8077153,98.9229758 52.8207573,85.4308521 64.569254,77.1861239 C66.3101287,75.9640711 67.3147441,74.0429159 67.3243775,71.9153327 C67.3340108,69.789126 66.350038,67.86109 64.6201728,66.6211465 L64.2252074,66.3390285 C52.6941479,58.0805386 45.8077153,44.6792427 45.8077153,30.4935215 L45.8077153,21.9790609 C45.8077153,20.6496654 46.8838923,19.5748645 48.2119113,19.5748645 L113.037136,19.5748645 C114.366531,19.5748645 115.442709,20.6496654 115.442709,21.9790609 L115.442709,30.2416795 C115.442709,44.5952955 108.429667,58.0874195 96.6784173,66.3321477 C94.9375422,67.5528244 93.935679,69.4726031 93.926046,71.6001863 C93.9136601,73.7250169 94.9003854,75.6558055 96.6288746,76.8957486 L97.0265921,77.1778666 C108.556275,85.4336043 115.442709,98.8362763 115.442709,113.023374 L115.442709,120.58689 C115.442709,121.916286 114.366531,122.991087 113.037136,122.991087 L113.037136,122.991087 Z M50.6174838,118.181318 L110.631564,118.181318 L110.631564,113.023374 C110.631564,100.383109 104.497904,88.4446985 94.2219256,81.0889864 L93.8255842,80.8041159 C90.8158664,78.6462568 89.0970107,75.2828591 89.1162771,71.5767912 C89.1314152,67.8707234 90.8819234,64.5238399 93.9164126,62.3948807 C104.382304,55.0488016 110.631564,43.0305725 110.631564,30.2416795 L110.631564,24.3832573 L50.6174838,24.3832573 L50.6174838,30.4921451 C50.6174838,43.131034 56.7525196,55.0694444 67.0284975,62.4279091 L67.4262154,62.7114032 C70.434557,64.8678862 72.1534131,68.2312839 72.1355224,71.9373517 C72.1190082,75.6434199 70.367124,78.9903034 67.3326347,81.1206384 C56.8667427,88.4680936 50.6174838,100.487699 50.6174838,113.275216 L50.6174838,118.181318 Z" id="形状" fill="#DDDDDD"></path>
                <path d="M95.4618692,82.1059876 C84.5335788,86.8359376 72.9447196,96.8889736 72.8139822,118.181318 L110.631564,118.181318 L110.631564,111.460027 C110.63294,99.9344723 105.000212,89.1038915 95.4618692,82.1059876 L95.4618692,82.1059876 Z" id="路径" fill="#F8F8F8"></path>
                <g id="编组" transform="translate(28.888889, 29.241192)" fill="#DDDDDD">
                    <path d="M39.2556952,9.86037 C38.571731,9.86037 37.8960238,9.57137119 37.4198637,9.01263965 C36.5597478,7.99701482 36.6836043,6.48045808 37.696477,5.62034214 L43.2700286,0.890392195 C44.2870299,0.0302762602 45.799458,0.159637534 46.6623265,1.16838152 C47.5210663,2.18263024 47.3972094,3.69918699 46.3843368,4.55930293 L40.8107851,9.28925322 C40.3580202,9.67183266 39.8061695,9.86037 39.2556952,9.86037 Z" id="路径"></path>
                    <path d="M2.65328591,40.9236322 C1.97069783,40.9236322 1.2936145,40.6360095 0.818830542,40.0759018 C-0.0412857453,39.0616531 0.0811950407,37.5437203 1.09544377,36.6849804 L27.3613227,14.3935257 C28.3755717,13.5361619 29.8935042,13.6600188 30.750868,14.6701389 C31.6109839,15.6857641 31.4871274,17.2023205 30.4728786,18.0624364 L4.2083755,40.3538915 C3.75561051,40.7364709 3.20238407,40.9236322 2.65328591,40.9236322 Z" id="路径"></path>
                    <path d="M19.6023882,42.3122034 C18.9198001,42.3122034 18.2427168,42.0232046 17.7679328,41.4644731 C16.9078169,40.4488482 17.0302973,38.9322915 18.0445461,38.0721756 L34.5477642,24.0639822 C35.5592608,23.2066185 37.0758172,23.3318511 37.9386856,24.3419715 C38.7974255,25.3562203 38.6735689,26.8741531 37.6606963,27.732893 L21.1561017,41.7410866 C20.7047128,42.1236661 20.1514864,42.3122034 19.6023882,42.3122034 Z" id="路径"></path>
                </g>
            </g>
        </g>
    </g>
</svg>