<?xml version="1.0" encoding="UTF-8"?>
<svg width="200px" height="156px" viewBox="0 0 200 156" version="1.1" xmlns="http://www.w3.org/2000/svg" xmlns:xlink="http://www.w3.org/1999/xlink">
    <title>空 (1)</title>
    <g id="页面-1" stroke="none" stroke-width="1" fill="none" fill-rule="evenodd">
        <g id="assets-3" transform="translate(-292.000000, -578.000000)" fill-rule="nonzero">
            <g id="编组-9" transform="translate(40.000000, 248.000000)">
                <g id="空-(1)" transform="translate(252.000000, 330.000000)">
                    <path d="M106.992218,1.6692607 L106.992218,54.2859922 L174.486381,27.6031128 L106.992218,1.6692607 L106.992218,1.6692607 Z M27.8774319,27.6031128 L106.992218,1.6692607 L106.992218,54.2859922 L91.6994163,60.3365759 L26.3336576,30.1070039 L27.8784047,27.6031128 L27.8774319,27.6031128 Z" id="形状" fill="#F9F9F9"></path>
                    <polygon id="路径" fill="#FFFFFF" points="176.551556 28.5826848 195.578794 41.7266537 183.081712 41.2052529"></polygon>
                    <polygon id="路径" fill="#F9F9F9" points="91.6994163 63.7587549 91.6994163 154.30642 177.866732 117.462062 179.201362 71.1449416 106.199416 99.2062257"></polygon>
                    <polygon id="路径" fill="#FFFFFF" points="91.6994163 62.0894942 106.199416 99.2062257 197.435798 63.0700389 174.486381 27.6031128 90.7607004 60.713035"></polygon>
                    <polygon id="路径" fill="#F9F9F9" points="26.6264591 69.3287938 26.6264591 117.044747 91.6994163 154.30642 90.7607004 65.4280156 78.8268482 100.478599"></polygon>
                    <polygon id="路径" fill="#FFFFFF" points="26.3336576 30.1070039 7.28599222 57.0817121 78.6809339 99.2266537 90.7607004 60.713035"></polygon>
                    <path d="M179.848249,71.4990272 L199.356031,63.67607 L185.607004,42.4571984 L197.854086,44.5856031 L198.959144,42.5817121 L176.009728,26.4970817 L107.30642,0 L26.209144,27.9153696 L0.109922179,47.1303502 L1.34046693,49.2587549 L15.631323,43.1245136 L5.17898833,58.0836576 L25.7918288,70.0389105 L25.7918288,117.898833 L91.3453307,155.642023 L179.723735,117.899805 L179.848249,71.4990272 Z M192.909533,41.1634241 L183.833658,39.5992218 L178.200389,31.0447471 L192.90856,41.1634241 L192.909533,41.1634241 Z M108.536965,3.12937743 L172.567121,27.9153696 L108.536965,52.7013619 L108.536965,3.12937743 L108.536965,3.12937743 Z M174.486381,29.6264591 L195.787938,62.5282101 L107.305447,97.9961089 L92.7237354,61.4007782 L174.487354,29.6264591 L174.486381,29.6264591 Z M9.45622568,43.2918288 L21.9533074,34.0282101 L18.114786,39.4319066 L9.45622568,43.2918288 Z M8.62159533,57.3959144 L27.0428016,30.8988327 L89.5719844,61.381323 L78.5768482,97.9961089 L8.62159533,57.3959144 Z M28.1498054,116.355058 L28.1498054,71.5 L79.9747082,101.543774 L89.9892996,68.3706226 L90.2811284,152.262646 L28.1498054,116.357004 L28.1498054,116.355058 Z M29.3803502,29.3346304 L106.199416,2.98346304 L106.199416,53.6819066 L91.0749027,59.5233463 L29.3822957,29.3346304 L29.3803502,29.3346304 Z M177.512646,116.210117 L92.5758755,152.38716 L92.2840467,66.7840467 L106.054475,101.125486 L177.511673,72.5009728 L177.511673,116.210117 L177.512646,116.210117 Z" id="形状" fill="#DDDDDD"></path>
                    <polygon id="路径" fill="#FFFFFF" points="23.6634241 31.2324903 8.26653696 44.1264591 18.5933852 40.3083658"></polygon>
                </g>
            </g>
        </g>
    </g>
</svg>