<?xml version="1.0" encoding="UTF-8"?>
<svg width="338px" height="190px" viewBox="0 0 338 190" version="1.1" xmlns="http://www.w3.org/2000/svg" xmlns:xlink="http://www.w3.org/1999/xlink">
    <title>material</title>
    <defs>
        <polygon id="path-1" points="0.109764706 0.257647059 38.6904706 0.257647059 38.6904706 12.0194824 0.109764706 12.0194824"></polygon>
        <polygon id="path-3" points="0.109764706 0.257647059 26.9283529 0.257647059 26.9283529 12.0194824 0.109764706 12.0194824"></polygon>
    </defs>
    <g id="home-没有list" stroke="none" stroke-width="1" fill="none" fill-rule="evenodd">
        <g id="published-folder" transform="translate(-202.000000, -346.000000)">
            <g id="material" transform="translate(202.000000, 346.000000)">
                <g id="编组-10">
                    <rect id="矩形备份-15" fill="#F5F5F5" x="0" y="187" width="338" height="3"></rect>
                    <rect id="矩形" x="128" y="0" width="80" height="103"></rect>
                </g>
                <g id="课程包" transform="translate(77.000000, 20.000000)">
                    <g transform="translate(15.000000, 14.000000)">
                        <g id="编组" transform="translate(36.705882, 0.448235)">
                            <mask id="mask-2" fill="white">
                                <use xlink:href="#path-1"></use>
                            </mask>
                            <g id="Clip-2"></g>
                            <path d="M15.1655294,12.0194824 L38.6904706,12.0194824 C31.7509412,12.0194824 30.7302353,0.257364706 23.634,0.257364706 L0.109764706,0.257364706 C7.20670588,0.257364706 8.226,12.0194824 15.1655294,12.0194824" id="Fill-1" fill="#FFA82F" mask="url(#mask-2)"></path>
                        </g>
                        <g id="编组" transform="translate(0.000000, 0.448235)" fill="#FBCB2C">
                            <path d="M5.646,120.398865 C2.54082353,120.398865 0.000352941177,117.858395 0.000352941177,114.753218 L0.000352941177,5.90308235 C0.000352941177,2.79790588 2.54082353,0.257435294 5.646,0.257435294 L36.8156471,0.257435294 C43.9125882,0.257435294 44.9318824,12.0195529 51.8714118,12.0195529 L147.533244,12.0195529 C150.638421,12.0195529 153.178891,14.5600235 153.178891,17.6652 L153.178891,114.753218 C153.178891,117.858395 150.638421,120.398865 147.533244,120.398865 L5.646,120.398865 Z" id="Fill-3"></path>
                        </g>
                        <g id="编组" transform="translate(36.705882, 0.448235)">
                            <mask id="mask-4" fill="white">
                                <use xlink:href="#path-3"></use>
                            </mask>
                            <g id="Clip-6"></g>
                            <path d="M15.1655294,12.0194824 L26.9283529,12.0194824 C19.9881176,12.0194824 18.9688235,0.257364706 11.8718824,0.257364706 L0.109764706,0.257364706 C7.20670588,0.257364706 8.226,12.0194824 15.1655294,12.0194824" id="Fill-5" fill="#FFB855" mask="url(#mask-4)"></path>
                        </g>
                        <path d="M94,26.676 C94,29.5884706 96.3611765,31.9496471 99.2736471,31.9496471 C102.186118,31.9496471 104.546588,29.5884706 104.546588,26.676 C104.546588,23.7642353 102.186118,21.4030588 99.2736471,21.4030588 C96.3611765,21.4030588 94,23.7642353 94,26.676" id="Fill-7" fill="#FBAA2C"></path>
                        <path d="M144.228,31.9690588 L109.410353,31.9690588 C108.634588,31.9690588 108,31.3344706 108,30.558 L108,22.794 C108,22.0175294 108.634588,21.3829412 109.410353,21.3829412 L144.228,21.3829412 C145.003765,21.3829412 145.638353,22.0175294 145.638353,22.794 L145.638353,30.558 C145.638353,31.3344706 145.003765,31.9690588 144.228,31.9690588" id="Fill-9" fill="#FFF0B9"></path>
                    </g>
                </g>
            </g>
        </g>
    </g>
</svg>