<?xml version="1.0" encoding="UTF-8"?>
<svg width="40px" height="40px" viewBox="0 0 40 40" version="1.1" xmlns="http://www.w3.org/2000/svg" xmlns:xlink="http://www.w3.org/1999/xlink">
    <title>folder-24px (1)</title>
    <g id="home-没有list" stroke="none" stroke-width="1" fill="none" fill-rule="evenodd">
        <g id="published-folder-1" transform="translate(-286.000000, -557.000000)">
            <g id="编组-6" transform="translate(286.000000, 376.000000)">
                <g id="folder-24px-(1)" transform="translate(0.000000, 181.000000)">
                    <polygon id="路径" points="0 0 40 0 40 40 0 40"></polygon>
                    <g id="编组-10" transform="translate(3.000000, 8.000000)">
                        <path d="M12,-1.77635684e-15 L3,-1.77635684e-15 C1.35,-1.77635684e-15 0.015,1.35 0.015,3 L-5.32907052e-15,21 C-5.32907052e-15,22.65 1.35,24 3,24 L27,24 C28.65,24 30,22.65 30,21 L30,6 C30,4.35 28.65,3 27,3 L15,3 L12,-1.77635684e-15 Z" id="路径" fill="#FBCB2C" fill-rule="nonzero"></path>
                        <path d="M6.24318012,7 L32.2431801,7 C33.3477496,7 34.0196817,7.8954305 33.7439825,9 L30.4991977,22 C30.2234984,23.1045695 29.1045695,24 28,24 L2,24 C0.8954305,24 0.223498406,23.1045695 0.499197661,22 L3.74398246,9 C4.01968171,7.8954305 5.13861062,7 6.24318012,7 Z" id="矩形" fill="#FFE74B"></path>
                    </g>
                </g>
            </g>
        </g>
    </g>
</svg>