<?xml version="1.0" encoding="UTF-8"?>
<svg width="400px" height="225px" viewBox="0 0 400 225" version="1.1" xmlns="http://www.w3.org/2000/svg" xmlns:xlink="http://www.w3.org/1999/xlink">
    <title>file</title>
    <defs>
        <linearGradient x1="38.8892425%" y1="41.5323865%" x2="84.5805995%" y2="76.3454557%" id="linearGradient-1">
            <stop stop-color="#EDF5FF" offset="0%"></stop>
            <stop stop-color="#D5E8FE" offset="100%"></stop>
        </linearGradient>
        <linearGradient x1="38.8892427%" y1="41.5323865%" x2="84.5774155%" y2="76.3454557%" id="linearGradient-2">
            <stop stop-color="#EDF5FF" offset="0%"></stop>
            <stop stop-color="#D5E8FE" offset="100%"></stop>
        </linearGradient>
    </defs>
    <g id="home-没有list" stroke="none" stroke-width="1" fill="none" fill-rule="evenodd">
        <g id="file" fill-rule="nonzero">
            <g id="folder" transform="translate(131.000000, 43.000000)">
                <g id="编组" transform="translate(24.109773, 0.000000)">
                    <path d="M47.7420088,15.4691593 L47.7420088,8.14965134 C47.7420088,3.64879502 44.0932138,9.73353654e-16 39.5923575,9.73353654e-16 L8.20115858,9.73353654e-16 C3.70030226,9.73353654e-16 0.0515072431,3.64879502 0.0515072431,8.14965134 L0.0515072431,96.1459405 C0.0515072431,102.558044 5.24962917,107.756166 11.661733,107.756166 L100.599125,107.756166 C107.011229,107.756166 112.209351,102.558044 112.209351,96.1459405 L112.209351,30.6259875 C112.209351,24.2138837 107.011229,19.0157618 100.599125,19.0157618 L51.2886112,19.0157618 C49.3299661,19.0157618 47.7420088,17.4278045 47.7420088,15.4691593 Z" id="路径" fill="#51BC86"></path>
                    <g transform="translate(72.877269, 26.301571)" fill="#FDBF00" id="路径">
                        <path d="M5.79757857,8.68636777 L3.00139281,8.68636777 C1.3978189,8.68636777 0.0978089669,7.38635783 0.0978089669,5.78278393 L0.0978089669,2.98659817 C0.0978089669,1.38302427 1.3978189,0.0830143332 3.00139281,0.0830143332 L5.79757857,0.0830143332 C7.40115247,0.0830143332 8.70116245,1.38302427 8.70116245,2.98659817 L8.70116245,5.78278393 C8.70143638,7.38635783 7.40142644,8.68636777 5.79757857,8.68636777 Z"></path>
                        <path d="M16.7672515,8.68636777 L13.9710657,8.68636777 C12.3674918,8.68636777 11.0674819,7.38635783 11.0674819,5.78278393 L11.0674819,2.98659817 C11.0674819,1.38302427 12.3674918,0.0830143332 13.9710657,0.0830143332 L16.7672515,0.0830143332 C18.3708254,0.0830143332 19.6708353,1.38302427 19.6708353,2.98659817 L19.6708353,5.78278393 C19.6708353,7.38635783 18.3708254,8.68636777 16.7672515,8.68636777 Z"></path>
                        <path d="M27.7366504,8.68636777 L24.9404646,8.68636777 C23.3368907,8.68636777 22.0368808,7.38635783 22.0368808,5.78278393 L22.0368808,2.98659817 C22.0368808,1.38302427 23.3368907,0.0830143332 24.9404646,0.0830143332 L27.7366504,0.0830143332 C29.3402243,0.0830143332 30.6402343,1.38302427 30.6402343,2.98659817 L30.6402343,5.78278393 C30.6405082,7.38635783 29.3404983,8.68636777 27.7366504,8.68636777 Z"></path>
                    </g>
                </g>
                <g id="编组" transform="translate(12.054887, 15.890532)">
                    <path d="M47.7762556,15.5642286 L47.7762556,8.24472056 C47.7762556,3.74386424 44.1274606,0.0950692199 39.6266043,0.0950692199 L8.23540542,0.0950692199 C3.7345491,0.0950692199 0.0857540802,3.74386424 0.0857540802,8.24472056 L0.0857540802,96.2410097 C0.0857540802,102.653113 5.28387601,107.851235 11.6959798,107.851235 L100.633372,107.851235 C107.045476,107.851235 112.243598,102.653113 112.243598,96.2410097 L112.243598,30.7210568 C112.243598,24.3089529 107.045476,19.110831 100.633372,19.110831 L51.3228581,19.110831 C49.364213,19.110831 47.7762556,17.5228737 47.7762556,15.5642286 Z" id="路径" fill="#97BAF6"></path>
                    <g transform="translate(72.877269, 26.301571)" id="路径">
                        <path d="M5.8318254,8.78143699 L3.03563964,8.78143699 C1.43206574,8.78143699 0.132055804,7.48142705 0.132055804,5.87785315 L0.132055804,3.08166739 C0.132055804,1.47809349 1.43206574,0.178083553 3.03563964,0.178083553 L5.8318254,0.178083553 C7.4353993,0.178083553 8.73540929,1.47809349 8.73540929,3.08166739 L8.73540929,5.87785315 C8.73568322,7.48142705 7.43567328,8.78143699 5.8318254,8.78143699 Z" fill="url(#linearGradient-1)"></path>
                        <path d="M16.8014983,8.78143699 L14.0053125,8.78143699 C12.4017386,8.78143699 11.1017287,7.48142705 11.1017287,5.87785315 L11.1017287,3.08166739 C11.1017287,1.47809349 12.4017386,0.178083553 14.0053125,0.178083553 L16.8014983,0.178083553 C18.4050722,0.178083553 19.7050821,1.47809349 19.7050821,3.08166739 L19.7050821,5.87785315 C19.7050821,7.48142705 18.4050722,8.78143699 16.8014983,8.78143699 Z" fill="url(#linearGradient-2)"></path>
                        <path d="M27.7708972,8.78143699 L24.9747115,8.78143699 C23.3711376,8.78143699 22.0711276,7.48142705 22.0711276,5.87785315 L22.0711276,3.08166739 C22.0711276,1.47809349 23.3711376,0.178083553 24.9747115,0.178083553 L27.7708972,0.178083553 C29.3744711,0.178083553 30.6744811,1.47809349 30.6744811,3.08166739 L30.6744811,5.87785315 C30.674755,7.48142705 29.3747451,8.78143699 27.7708972,8.78143699 Z" fill="url(#linearGradient-1)"></path>
                    </g>
                </g>
                <g id="编组" transform="translate(0.000000, 31.781065)">
                    <path d="M47.8105025,15.6590238 L47.8105025,8.3395158 C47.8105025,3.83865948 44.1617074,0.189864465 39.6608511,0.189864465 L8.26992623,0.189864465 C3.76906991,0.189864465 0.120274892,3.83865948 0.120274892,8.3395158 L0.120274892,96.3358049 C0.120274892,102.747909 5.31812285,107.946031 11.7305006,107.946031 L100.667893,107.946031 C107.079997,107.946031 112.278119,102.747909 112.278119,96.3358049 L112.278119,30.815852 C112.278119,24.4037482 107.079997,19.2056263 100.667893,19.2056263 L51.3571049,19.2056263 C49.3984598,19.2056263 47.8105025,17.6179429 47.8105025,15.6590238 Z" id="路径" fill="#F7CF5C"></path>
                    <g transform="translate(72.877269, 26.575546)" fill="#FF637B" id="路径">
                        <path d="M5.86607224,8.60253151 L3.06988648,8.60253151 C1.46631258,8.60253151 0.166302641,7.30252158 0.166302641,5.69894767 L0.166302641,2.90276192 C0.166302641,1.29918801 1.46631258,-0.000821924091 3.06988648,-0.000821924091 L5.86607224,-0.000821924091 C7.46964614,-0.000821924091 8.76965612,1.29918801 8.76965612,2.90276192 L8.76965612,5.6986737 C8.76993005,7.3022476 7.46992012,8.60253151 5.86607224,8.60253151 Z"></path>
                        <path d="M16.8357451,8.60253151 L14.0395594,8.60253151 C12.4359855,8.60253151 11.1359755,7.30252158 11.1359755,5.69894767 L11.1359755,2.90276192 C11.1359755,1.29918801 12.4359855,-0.000821924091 14.0395594,-0.000821924091 L16.8357451,-0.000821924091 C18.439319,-0.000821924091 19.739329,1.29918801 19.739329,2.90276192 L19.739329,5.6986737 C19.739329,7.3022476 18.439319,8.60253151 16.8357451,8.60253151 Z"></path>
                        <path d="M27.8051441,8.60253151 L25.0089583,8.60253151 C23.4053844,8.60253151 22.1053745,7.30252158 22.1053745,5.69894767 L22.1053745,2.90276192 C22.1053745,1.29918801 23.4053844,-0.000821924091 25.0089583,-0.000821924091 L27.8051441,-0.000821924091 C29.408718,-0.000821924091 30.7087279,1.29918801 30.7087279,2.90276192 L30.7087279,5.6986737 C30.7090019,7.3022476 29.4089919,8.60253151 27.8051441,8.60253151 Z"></path>
                    </g>
                </g>
            </g>
        </g>
    </g>
</svg>