<?xml version="1.0" encoding="UTF-8"?>
<svg width="400px" height="225px" viewBox="0 0 400 225" version="1.1" xmlns="http://www.w3.org/2000/svg" xmlns:xlink="http://www.w3.org/1999/xlink">
    <title>picture</title>
    <g id="home-没有list" stroke="none" stroke-width="1" fill="none" fill-rule="evenodd">
        <g id="编组-37" transform="translate(97.000000, 35.000000)">
            <g id="图片-(2)备份" transform="translate(0.000000, 39.000000)" fill="#F26262">
                <rect id="矩形" x="0" y="0" width="120" height="96.9014085" rx="14.084507"></rect>
                <path d="M97.3552425,13.258216 C102.834659,12.5477995 107.85435,16.4089056 108.57347,21.8871868 C109.29259,27.3654679 105.439463,32.391286 99.9623307,33.1191075 C94.4851988,33.846929 89.4532662,30.0017904 88.7167449,24.5258216 C88.6819078,24.1092299 88.6819078,23.6904571 88.7167449,23.2738654 C88.4168473,18.122012 92.3307688,13.6936894 97.4804382,13.3583725 L97.3552425,13.258216 Z" id="路径" fill-rule="nonzero" style="mix-blend-mode: multiply;"></path>
                <path d="M103.70266,81.8403756 L14.6760563,81.8403756 C11.4494167,81.4298644 9.15453898,78.4984513 9.5305164,75.2676056 C9.66429214,74.2472535 10.0805762,73.2845966 10.7323944,72.4882629 L35.3834115,38.685446 C36.2850613,37.3979361 37.755263,36.6278305 39.3270735,36.6197183 C40.8273891,36.7035254 42.2087325,37.4632642 43.0829421,38.685446 L64.9420971,68.7323944 C65.8437469,70.0199042 67.3139485,70.7900098 68.885759,70.798122 C70.5191543,70.8323377 72.0645497,70.05964 73.0172143,68.7323944 L85.1486698,51.9812206 C86.083891,50.6713014 87.6085573,49.9113139 89.2175274,49.9530516 C90.7847164,49.9795105 92.2470889,50.7455152 93.1611894,52.0187794 L107.99687,72.4882629 C108.92978,73.7910088 109.303786,75.4123791 109.03579,76.9921407 C108.767795,78.5719024 107.879995,79.9792164 106.56964,80.9014085 C105.773203,81.451897 104.860771,81.8117293 103.902973,81.9530516 L103.70266,81.8403756 Z" id="路径" fill-rule="nonzero" style="mix-blend-mode: multiply;"></path>
            </g>
            <g id="图片-(2)备份-2" transform="translate(87.000000, 59.000000)" fill="#97BAF6">
                <rect id="矩形" x="0" y="0" width="120" height="96.9014085" rx="14.084507"></rect>
                <path d="M97.3552425,13.258216 C102.834659,12.5477995 107.85435,16.4089056 108.57347,21.8871868 C109.29259,27.3654679 105.439463,32.391286 99.9623307,33.1191075 C94.4851988,33.846929 89.4532662,30.0017904 88.7167449,24.5258216 C88.6819078,24.1092299 88.6819078,23.6904571 88.7167449,23.2738654 C88.4168473,18.122012 92.3307688,13.6936894 97.4804382,13.3583725 L97.3552425,13.258216 Z" id="路径" fill-rule="nonzero" style="mix-blend-mode: multiply;"></path>
                <path d="M103.70266,81.8403756 L14.6760563,81.8403756 C11.4494167,81.4298644 9.15453898,78.4984513 9.5305164,75.2676056 C9.66429214,74.2472535 10.0805762,73.2845966 10.7323944,72.4882629 L35.3834115,38.685446 C36.2850613,37.3979361 37.755263,36.6278305 39.3270735,36.6197183 C40.8273891,36.7035254 42.2087325,37.4632642 43.0829421,38.685446 L64.9420971,68.7323944 C65.8437469,70.0199042 67.3139485,70.7900098 68.885759,70.798122 C70.5191543,70.8323377 72.0645497,70.05964 73.0172143,68.7323944 L85.1486698,51.9812206 C86.083891,50.6713014 87.6085573,49.9113139 89.2175274,49.9530516 C90.7847164,49.9795105 92.2470889,50.7455152 93.1611894,52.0187794 L107.99687,72.4882629 C108.92978,73.7910088 109.303786,75.4123791 109.03579,76.9921407 C108.767795,78.5719024 107.879995,79.9792164 106.56964,80.9014085 C105.773203,81.451897 104.860771,81.8117293 103.902973,81.9530516 L103.70266,81.8403756 Z" id="路径" fill-rule="nonzero" style="mix-blend-mode: multiply;"></path>
            </g>
            <g id="图片-(2)" transform="translate(36.000000, 0.000000)">
                <rect id="矩形" fill="#8AC97A" x="0" y="0" width="130" height="104.976526" rx="15.258216"></rect>
                <path d="M105.468179,14.3630673 C111.404214,13.5934495 116.842213,17.7763144 117.621259,23.711119 C118.400306,29.6459236 114.226085,35.0905599 108.292525,35.8790332 C102.358965,36.6675064 96.907705,32.5019396 96.109807,26.5696401 C96.0720668,26.1183324 96.0720668,25.6646619 96.109807,25.2133542 C95.7849179,19.6321797 100.024999,14.8348302 105.603808,14.4715702 L105.468179,14.3630673 Z" id="路径" fill="#589B42" fill-rule="nonzero"></path>
                <path d="M112.344549,88.6604068 L15.899061,88.6604068 C12.4035347,88.2156864 9.91741723,85.039989 10.3247261,81.5399061 C10.4696498,80.4345246 10.9206242,79.3916464 11.6267606,78.5289514 L38.3320292,41.9092331 C39.3088165,40.5144308 40.9015349,39.6801497 42.6043296,39.6713615 C44.2296716,39.7621525 45.7261269,40.5852029 46.6731873,41.9092331 L70.3539385,74.4600939 C71.3307258,75.8548962 72.9234443,76.6891773 74.6262389,76.6979655 C76.3957505,76.7350325 78.0699289,75.8979433 79.1019822,74.4600939 L92.2443923,56.312989 C93.2575485,54.8939099 94.9092704,54.0705901 96.6523213,54.1158059 C98.3501094,54.1444697 99.9343463,54.9743081 100.924622,56.3536777 L116.996609,78.5289514 C118.007262,79.9402596 118.412434,81.696744 118.122106,83.4081525 C117.831778,85.1195609 116.869995,86.6441511 115.450443,87.6431925 C114.587637,88.2395551 113.599169,88.6293734 112.561554,88.7824726 L112.344549,88.6604068 Z" id="路径" fill="#589B42" fill-rule="nonzero"></path>
            </g>
        </g>
    </g>
</svg>