<?xml version="1.0" encoding="UTF-8"?>
<svg width="400px" height="225px" viewBox="0 0 400 225" version="1.1" xmlns="http://www.w3.org/2000/svg" xmlns:xlink="http://www.w3.org/1999/xlink">
    <title>audio</title>
    <defs>
        <rect id="path-1" x="0" y="0" width="129.775281" height="139.213483" rx="14.9438202"></rect>
        <path d="M16.0420129,50.5069267 C7.22291855,50.5069267 3.24405242e-15,43.2929254 3.24405242e-15,34.4649138 L3.24405242e-15,16.0420129 C3.24405242e-15,7.22291855 7.21400136,-3.24405242e-15 16.0420129,-3.24405242e-15 C24.8611073,-3.24405242e-15 32.0840258,7.21400136 32.0840258,16.0420129 L32.0840258,34.473831 C32.0840258,43.2929254 24.8611073,50.5069267 16.0420129,50.5069267 Z" id="path-3"></path>
    </defs>
    <g id="home-没有list" stroke="none" stroke-width="1" fill="none" fill-rule="evenodd">
        <g id="编组-36" transform="translate(135.000000, 43.000000)">
            <g id="矩形">
                <mask id="mask-2" fill="white">
                    <use xlink:href="#path-1"></use>
                </mask>
                <use id="蒙版" stroke="#97BAF6" stroke-width="7.07865169" fill="#FFFFFF" xlink:href="#path-1"></use>
                <rect fill="#97BAF6" mask="url(#mask-2)" x="0" y="101.460674" width="129.775281" height="37.752809"></rect>
            </g>
            <g id="音频-(1)" transform="translate(39.670806, 12.860240)">
                <g id="矩形" transform="translate(9.175782, 0.026752)">
                    <mask id="mask-4" fill="white">
                        <use xlink:href="#path-3"></use>
                    </mask>
                    <use id="蒙版" fill="#3C5F84" fill-rule="nonzero" xlink:href="#path-3"></use>
                    <rect fill="#000000" mask="url(#mask-4)" x="21.4137242" y="18.6921998" width="11.8705545" height="3.19591853" rx="1.59795926"></rect>
                    <rect id="矩形备份-30" fill="#000000" mask="url(#mask-4)" x="21.4137242" y="24.6274771" width="11.8705545" height="3.19591853" rx="1.59795926"></rect>
                    <rect id="矩形备份-31" fill="#000000" mask="url(#mask-4)" x="21.4137242" y="31.0193141" width="11.8705545" height="3.19591853" rx="1.59795926"></rect>
                </g>
                <path d="M44.4878279,35.1604541 L44.4878279,35.6865679 L44.4878279,35.6865679 C44.4878279,46.3158505 35.8470772,54.9566012 25.2177946,54.9566012 C14.588512,54.9566012 5.94776132,46.3069333 5.94776132,35.6865679 L5.94776132,35.1604541 C5.94776132,33.5204876 4.61830578,32.191032 2.97833925,32.191032 C1.33837273,32.191032 0.00891718339,33.5204876 0.00891718339,35.1604541 L0.00891718339,35.6865679 L0.00891718339,35.6865679 C0.00891718339,48.5808151 9.74648145,59.2279321 22.2483726,60.6992673 L22.2483726,72.5591212 L11.2356511,72.5591212 C9.59568455,72.5591212 8.266229,73.8885768 8.266229,75.5285433 C8.266229,77.1685098 9.59568455,78.4979654 11.2356511,78.4979654 L39.1999382,78.4979654 C40.8399047,78.4979654 42.1693603,77.1685098 42.1693603,75.5285433 C42.1693603,73.8885768 40.8399047,72.5591212 39.1999382,72.5591212 L28.1872167,72.5591212 L28.1872167,72.5591212 L28.1872167,60.6992673 C40.6891078,59.2279321 50.4266721,48.5808151 50.4266721,35.6865679 L50.4266721,35.1604541 C50.4266721,33.5204876 49.0972165,32.191032 47.45725,32.191032 C45.8172835,32.191032 44.4878279,33.5204876 44.4878279,35.1604541 Z" id="路径" fill="#3C5F84" fill-rule="nonzero"></path>
            </g>
            <g id="编组-33" transform="translate(40.001971, 105.655431)" fill="#FFFFFF">
                <rect id="矩形" x="11.4665878" y="7.09245023" width="4.71910112" height="16.5168539" rx="2.35955056"></rect>
                <rect id="矩形备份-32" x="22.4778238" y="0.0137985413" width="4.71910112" height="30.6741573" rx="2.35955056"></rect>
                <rect id="矩形备份-33" x="32.7025429" y="9.45200079" width="4.71910112" height="11.7977528" rx="2.35955056"></rect>
                <rect id="矩形备份-34" x="43.7137788" y="11.8115514" width="4.71910112" height="6.29213483" rx="2.35955056"></rect>
                <rect id="矩形备份-35" x="0.455351863" y="11.8115514" width="4.71910112" height="6.29213483" rx="2.35955056"></rect>
            </g>
        </g>
    </g>
</svg>