<?xml version="1.0" encoding="UTF-8"?>
<svg width="400px" height="225px" viewBox="0 0 400 225" version="1.1" xmlns="http://www.w3.org/2000/svg" xmlns:xlink="http://www.w3.org/1999/xlink">
    <title>video</title>
    <defs>
        <rect id="path-1" x="0.2" y="0" width="166" height="130" rx="19.0666667"></rect>
    </defs>
    <g id="home-没有list" stroke="none" stroke-width="1" fill="none" fill-rule="evenodd">
        <g id="编组-35" transform="translate(117.000000, 47.000000)">
            <g id="矩形">
                <mask id="mask-2" fill="white">
                    <use xlink:href="#path-1"></use>
                </mask>
                <rect stroke="#51BC86" stroke-width="5.2" x="-2.4" y="-2.6" width="171.2" height="135.2" rx="19.0666667"></rect>
                <rect fill="#51BC86" mask="url(#mask-2)" x="-16.4666667" y="-7.8" width="197.6" height="32.0666667"></rect>
                <rect id="矩形备份-37" fill="#51BC86" mask="url(#mask-2)" x="-16.4666667" y="102.266667" width="197.6" height="32.0666667"></rect>
                <rect fill="#FFFFFF" mask="url(#mask-2)" x="6.06666667" y="3.46666667" width="17.3333333" height="17.3333333" rx="6.06666667"></rect>
                <rect id="矩形备份-42" fill="#FFFFFF" mask="url(#mask-2)" x="6.06666667" y="105.733333" width="17.3333333" height="17.3333333" rx="6.06666667"></rect>
                <rect id="矩形备份-38" fill="#FFFFFF" mask="url(#mask-2)" x="40.7333333" y="3.46666667" width="17.3333333" height="17.3333333" rx="6.06666667"></rect>
                <rect id="矩形备份-43" fill="#FFFFFF" mask="url(#mask-2)" x="40.7333333" y="105.733333" width="17.3333333" height="17.3333333" rx="6.06666667"></rect>
                <rect id="矩形备份-39" fill="#FFFFFF" mask="url(#mask-2)" x="75.4" y="3.46666667" width="17.3333333" height="17.3333333" rx="6.06666667"></rect>
                <rect id="矩形备份-44" fill="#FFFFFF" mask="url(#mask-2)" x="75.4" y="105.733333" width="17.3333333" height="17.3333333" rx="6.06666667"></rect>
                <rect id="矩形备份-40" fill="#FFFFFF" mask="url(#mask-2)" x="110.066667" y="3.46666667" width="17.3333333" height="17.3333333" rx="6.06666667"></rect>
                <rect id="矩形备份-45" fill="#FFFFFF" mask="url(#mask-2)" x="110.066667" y="105.733333" width="17.3333333" height="17.3333333" rx="6.06666667"></rect>
                <rect id="矩形备份-41" fill="#FFFFFF" mask="url(#mask-2)" x="144.733333" y="3.46666667" width="17.3333333" height="17.3333333" rx="6.06666667"></rect>
                <rect id="矩形备份-46" fill="#FFFFFF" mask="url(#mask-2)" x="144.733333" y="105.733333" width="17.3333333" height="17.3333333" rx="6.06666667"></rect>
            </g>
            <g id="视频" transform="translate(47.666667, 41.600000)" fill="#FAC361" fill-rule="nonzero">
                <path d="M59.9728626,12.98071 L69.9373446,7.30102673 C71.7399644,6.19942569 73.2636074,7.11504216 73.2636074,8.94627504 L73.2636074,39.5908127 C73.2636074,41.6080301 71.7399644,42.3376619 69.9373446,41.2360609 L59.9728626,35.5563777 C58.1273232,34.4547767 56.6465997,33.3603289 56.6465997,31.529096 L56.6465997,16.8291603 C56.6465997,14.9979274 58.1773959,14.082311 59.9728626,12.98071 M46.4102941,0.0404224683 L7.0387874,0.0404224683 C5.18609479,0.0333213539 3.40493467,0.762953187 2.08873604,2.06484531 C0.772537413,3.36673742 0.0285990699,5.14789755 0.0214457788,7.00059015 L0.0214457788,41.2432142 C0.0285989983,43.0959068 0.772537413,44.8699137 2.08873604,46.178959 C3.40493467,47.4808511 5.18609479,48.210483 7.0387874,48.2033819 L46.4102941,48.2033819 C48.2629867,48.210483 50.0441469,47.4808511 51.3603455,46.178959 C52.6765441,44.8770669 53.4204825,43.0959068 53.4276357,41.2432142 L53.4276357,7.00059015 C53.4204825,5.14789755 52.676544,3.37389064 51.3603455,2.06484531 C50.0430334,0.761890655 48.2631189,0.0339776296 46.4102941,0.0404224683 L46.4102941,0.0404224683 Z M13.2478113,21.4072424 C9.87862895,21.4072424 7.14608619,18.6746996 7.14608619,15.3055173 C7.14608619,11.9363349 9.87862903,9.20379216 13.2478113,9.20379216 C16.6169936,9.20379216 19.3495365,11.936335 19.3495365,15.3055173 C19.3495365,18.6746997 16.6169936,21.4072424 13.2478113,21.4072424 Z" id="形状"></path>
            </g>
        </g>
    </g>
</svg>