<?xml version="1.0" encoding="UTF-8"?>
<svg width="175px" height="58px" viewBox="0 0 175 58" version="1.1" xmlns="http://www.w3.org/2000/svg" xmlns:xlink="http://www.w3.org/1999/xlink">
    <title>kidsloop</title>
    <defs>
        <polygon id="path-1" points="0.203522974 0.146324125 22.2275751 0.146324125 22.2275751 9.72937065 0.203522974 9.72937065"></polygon>
        <polygon id="path-3" points="0 0.0603732685 19.8875249 0.0603732685 19.8875249 27.3620603 0 27.3620603"></polygon>
    </defs>
    <g id="登录，注册和支付" stroke="none" stroke-width="1" fill="none" fill-rule="evenodd">
        <g id="管理员个人信息-我的订单" transform="translate(-47.000000, -8.000000)">
            <g id="kidsloop" transform="translate(47.000000, 8.000000)">
                <g id="编组" transform="translate(3.866667, 6.766667)">
                    <path d="M139.744818,14.2591804 L144.291614,11.5252801 C145.980068,10.5095847 146.920906,8.60231659 146.698572,6.64482355 L145.944239,9.5971223e-05 L141.123604,2.92337942 C139.377568,3.98226192 138.444727,5.99093962 138.761752,8.00825472 L139.744818,14.2591804" id="Fill-1" fill="#5E9DD4"></path>
                    <path d="M144.778636,13.6318805 L140.388592,15.9339102 C142.286263,15.7960316 144.183934,16.2042292 145.857033,17.1098776 L153.028962,20.9919136 C155.952566,22.487785 159.424165,22.4509961 162.315138,20.8940229 L167.14409,18.3088781 L166.307541,18.2314613 C164.647558,18.0779073 163.024685,17.6527548 161.502901,16.9723188 L153.692123,13.4808858 C150.862252,12.129291 147.561162,12.1852742 144.778636,13.6318805" id="Fill-3" fill="#5E9DD4"></path>
                    <path d="M152.491012,25.85276 C149.319802,25.2507006 146.338616,23.4374843 144.141515,20.860337 L135.606154,10.8473394 C133.05396,7.75002815 129.147931,6.90996005 125.95113,8.61120993 L121.476311,11.008891 L122.504483,11.4653941 C124.193896,12.2155692 125.700325,13.5374128 126.856778,15.3240771 L133.855,25.8479615 C137.394738,30.6535605 140.901847,31.5927989 146.137397,29.2072742 L152.491012,25.85276" id="Fill-5" fill="#5E9DD4"></path>
                    <path d="M132.60008,19.0219763 C133.078976,22.2398914 134.070039,25.3730319 135.620294,27.9210679 C137.356734,29.6389528 139.154594,30.4671844 141.214777,30.4671844 C141.924324,30.4671844 142.665222,30.3689739 143.445468,30.1747921 C140.195882,27.810701 137.553794,23.9577763 136.265861,20.5152885 C134.960332,20.3441398 133.730941,19.8281345 132.60008,19.0219763" id="Fill-7" fill="#66AFE0"></path>
                    <g transform="translate(144.916547, 12.359174)">
                        <mask id="mask-2" fill="white">
                            <use xlink:href="#path-1"></use>
                        </mask>
                        <g id="Clip-10"></g>
                        <path d="M4.47040355,0.146324125 C4.25542801,0.146324125 4.04045247,0.153362014 3.82579683,0.16711789 C2.60088412,1.86069007 1.39100691,3.2596306 0.203522974,4.39017161 C0.453048153,4.49989871 0.699054388,4.62018264 0.940581966,4.7507035 L8.11251146,8.63273947 C9.54184288,9.36404019 11.102335,9.72937065 12.6621872,9.72937065 C14.2924184,9.72937065 15.92137,9.33045026 17.398687,8.53484882 L22.227639,5.94970398 L21.3910899,5.87228719 C19.7311076,5.71873324 18.1082342,5.29358072 16.5864506,4.61314475 L8.77567261,1.12171165 C7.41288125,0.471026763 5.94100259,0.146324125 4.47040355,0.146324125" id="Fill-9" fill="#FFD756" mask="url(#mask-2)"></path>
                    </g>
                    <path d="M142.449319,18.8753002 C140.624266,20.04327 138.873751,20.5781496 137.232643,20.5781496 C136.906021,20.5781496 136.583877,20.5567161 136.265893,20.5151285 C137.553826,23.9576163 140.195914,27.810541 143.4455,30.174952 C144.293246,29.9641353 145.186418,29.6407122 146.137173,29.2072422 L152.491108,25.8527281 C149.319898,25.2506686 146.338392,23.4374523 144.141611,20.860305 L142.449319,18.8753002" id="Fill-11" fill="#A9CFED"></path>
                    <path d="M129.389171,7.74599736 C128.325809,7.74599736 127.263088,7.97952734 126.261149,8.4552247 C126.399667,8.97794796 126.550982,9.48595564 126.714453,9.97636859 C128.062848,14.023795 130.09328,17.2356319 132.600048,19.0219763 C132.157301,16.048148 132.152502,13.0023412 132.547584,10.2789978 C132.630759,9.70700935 132.728009,9.14493789 132.839016,8.59278345 C131.743665,8.03231151 130.566098,7.74599736 129.389171,7.74599736" id="Fill-13" fill="#78BAE6"></path>
                    <path d="M145.944207,3.19904077e-05 L141.123572,2.92331544 C139.377536,3.98219794 138.444695,5.99119554 138.76172,8.00819074 L138.76268,8.01426892 C140.593171,6.05037779 143.147285,4.48764638 146.361042,3.67061137 L145.944207,3.19904077e-05" id="Fill-15" fill="#E790AD"></path>
                    <path d="M132.83908,8.59275146 C132.727754,9.1449059 132.630823,9.70697736 132.547648,10.2789659 C132.152566,13.0023093 132.157365,16.048116 132.600112,19.0219443 C133.730973,19.8281025 134.960364,20.3441078 136.265893,20.5152565 C136.057315,19.956704 135.884247,19.409668 135.749567,18.8808666 C135.148468,16.5170953 135.368562,14.0141659 136.344589,11.7137356 L135.605931,10.8474354 C134.797533,9.86628959 133.853496,9.11195578 132.83908,8.59275146" id="Fill-17" fill="#86C8EE"></path>
                    <path d="M146.360978,3.67048341 C143.147221,4.48783832 140.593427,6.05024983 138.762616,8.01446086 L139.744722,14.2593083 L144.291518,11.5250882 C145.980292,10.5097127 146.92081,8.60244456 146.698796,6.64463161 L146.360978,3.67048341" id="Fill-19" fill="#ECA6C4"></path>
                    <path d="M148.74244,12.52626 C147.376129,12.6145535 146.025494,12.9837228 144.778508,13.6318485 L140.388784,15.9338782 C140.629672,15.9162835 140.87056,15.9076461 141.110808,15.9076461 C142.491194,15.9076461 143.856545,16.1942801 145.120166,16.7493137 C146.30765,15.6187727 147.517527,14.2198322 148.74244,12.52626" id="Fill-21" fill="#FFEF95"></path>
                    <path d="M136.344589,11.7138636 C135.368562,14.0142938 135.148468,16.5169034 135.749567,18.8806746 C135.884247,19.4094761 136.057315,19.9568319 136.265893,20.5153845 C136.583877,20.556972 136.906021,20.5780857 137.232643,20.5780857 C138.873751,20.5780857 140.624266,20.0435259 142.449319,18.8752363 L136.344589,11.7138636" id="Fill-23" fill="#C4E8FA"></path>
                    <g transform="translate(0.000000, 11.079558)">
                        <mask id="mask-4" fill="white">
                            <use xlink:href="#path-3"></use>
                        </mask>
                        <g id="Clip-26"></g>
                        <path d="M12.2291651,17.2941424 C11.5666437,16.4713491 10.5669435,15.9930925 9.51062024,15.9930925 L10.1014831,15.9921328 C11.3427109,15.9921328 12.5173987,15.4300613 13.2957253,14.4633112 L18.6269267,7.89024211 C19.0680744,7.34608528 18.6806706,6.53320902 17.9804006,6.53320902 L15.0545579,6.53320902 C13.8277258,6.53320902 12.6655142,7.08248432 11.8862279,8.03004019 L5.41552815,15.8852848 L5.41552815,3.19500998 C5.41552815,1.7215318 4.32593487,0.474545707 2.86525285,0.277484796 L1.58563655,0.0772248441 C0.752606331,-0.0532960192 -0.000127961631,0.590990791 -0.000127961631,1.43425794 L-0.000127961631,25.9884953 C-0.000127961631,26.8314426 0.752606331,27.4757294 1.58563655,27.3452085 L2.86525285,27.1452685 C4.34896796,26.8077697 5.41552815,25.7012215 5.41552815,24.2274234 L5.41552815,17.1709793 L13.1591262,25.1756191 C13.8219675,25.9865759 14.8143099,26.4571548 15.8616759,26.4571548 L19.0536788,26.4571548 C19.7529891,26.4571548 20.1403929,25.6471577 19.7018044,25.1023611 L12.2291651,17.2941424 Z" id="Fill-25" fill="#659AD1" mask="url(#mask-4)"></path>
                    </g>
                    <path d="M24.3780023,18.2669067 L22.6194895,18.0292179 C21.7954166,17.9178913 21.0621965,18.5586592 21.0621965,19.3904098 L21.0621965,36.1629805 C21.0621965,36.9947311 21.7954166,37.635499 22.6194895,37.5241724 L24.3780023,37.2864836 C25.8383644,37.0887829 26.9279576,35.8421167 26.9279576,34.3686386 L26.9279576,21.1847518 C26.9279576,19.7112736 25.8383644,18.4642875 24.3780023,18.2669067" id="Fill-27" fill="#659AD1"></path>
                    <path d="M33.9860653,30.8631297 L33.9860653,24.3172525 C33.9860653,22.6531115 35.3347809,21.3043959 36.998602,21.3043959 L39.8339118,21.3043959 L39.8339118,33.8756664 L36.998602,33.8756664 C35.3347809,33.8756664 33.9860653,32.5269508 33.9860653,30.8631297 M43.6638034,10.8246582 L42.3838672,11.0249182 C40.9251046,11.2408534 39.8339118,12.4689652 39.8339118,13.9427633 L39.8339118,17.632217 L34.5078288,17.632217 C31.2214542,17.632217 28.5572931,20.2963781 28.5572931,23.5827527 L28.5572931,31.5973095 C28.5572931,34.8836841 31.2214542,37.5478453 34.5078288,37.5478453 L40.0143377,37.5478453 L40.8595243,37.5366486 C41.2961933,37.8610314 41.8313929,38.1006395 42.3838672,38.2247623 L43.6638034,38.4250223 C44.5371415,38.5465858 45.249248,37.9112563 45.249248,37.0679892 L45.249248,36.1223527 L45.249248,20.5459033 L45.249248,12.1816913 C45.249248,11.3384242 44.4965137,10.6944573 43.6638034,10.8246582" id="Fill-29" fill="#659AD1"></path>
                    <path d="M121.624939,24.2943153 L121.624939,30.8405125 C121.624939,32.5043336 120.275903,33.8530492 118.612402,33.8530492 L115.776772,33.8530492 L115.776772,21.2817787 L118.612402,21.2817787 C120.275903,21.2817787 121.624939,22.6304942 121.624939,24.2943153 M111.947201,44.3327868 L113.226817,44.1325269 C114.687179,43.935146 115.776772,42.6884799 115.776772,41.2146818 L115.776772,37.5252281 L121.102855,37.5252281 C124.38955,37.5252281 127.053711,34.8610669 127.053711,31.5746923 L127.053711,23.5601355 C127.053711,20.2737609 124.38955,17.6095998 121.102855,17.6095998 L115.596666,17.6095998 L114.75148,17.6207964 C114.332405,17.2596247 113.810002,17.0113791 113.226817,16.9326827 L111.947201,16.7324228 C111.11417,16.6022218 110.361436,17.2461887 110.361436,18.0894559 L110.361436,19.0350923 L110.361436,34.6118616 L110.361436,42.9757537 C110.361436,43.8190209 111.11417,44.4629878 111.947201,44.3327868" id="Fill-31" fill="#659AD1"></path>
                    <path d="M79.8346536,34.0281007 C77.8198977,34.0281007 76.1867874,33.3473448 76.1867874,27.5788345 C76.1867874,21.8100043 77.8198977,21.1292484 79.8346536,21.1292484 C81.8494094,21.1292484 83.4825198,21.8100043 83.4825198,27.5788345 C83.4825198,33.3473448 81.8494094,34.0281007 79.8346536,34.0281007 M79.8346536,17.6208604 C74.61062,17.6208604 70.3757298,19.6055453 70.3757298,27.5788345 C70.3757298,35.5518038 74.61062,37.5364887 79.8346536,37.5364887 C85.0586871,37.5364887 89.2935773,35.5518038 89.2935773,27.5788345 C89.2935773,19.6055453 85.0586871,17.6208604 79.8346536,17.6208604" id="Fill-33" fill="#659AD1"></path>
                    <path d="M99.7693162,34.0281007 C97.7545603,34.0281007 96.12145,33.3473448 96.12145,27.5788345 C96.12145,21.8100043 97.7545603,21.1292484 99.7693162,21.1292484 C101.784072,21.1292484 103.417182,21.8100043 103.417182,27.5788345 C103.417182,33.3473448 101.784072,34.0281007 99.7693162,34.0281007 M99.7693162,17.6208604 C94.5449627,17.6208604 90.3100725,19.6055453 90.3100725,27.5788345 C90.3100725,35.5518038 94.5449627,37.5364887 99.7693162,37.5364887 C104.99335,37.5364887 109.22824,35.5518038 109.22824,27.5788345 C109.22824,19.6055453 104.99335,17.6208604 99.7693162,17.6208604" id="Fill-35" fill="#659AD1"></path>
                    <path d="M56.781566,25.5381664 L54.2664802,25.5381664 C53.1346596,25.5381664 52.2171747,24.6206815 52.2171747,23.4891808 C52.2171747,22.2764244 53.2005598,21.2930393 54.4133162,21.2930393 L58.6101377,21.2930393 C60.3005109,21.2930393 61.7333612,20.1356263 62.1559545,18.5741745 C62.2384898,18.2699458 62.3738092,17.6208604 61.2496663,17.6208604 L52.362731,17.6208604 C49.2842941,17.6208604 46.7884025,20.116752 46.7884025,23.1955088 L46.7884025,23.6360167 C46.7884025,26.7019774 49.2970903,29.2103453 52.362731,29.2103453 L55.3189646,29.2103453 C56.5227636,29.2103453 57.498791,30.1866925 57.498791,31.3904916 C57.498791,32.7568019 56.3912831,33.8643098 55.0252927,33.8643098 L50.3307003,33.8643098 C50.241767,33.8643098 50.1592318,33.8687884 50.0798955,33.8751865 C48.5005291,33.9829942 47.1863632,35.0997793 46.7848835,36.5831745 C46.7026682,36.8874033 46.5670289,37.5364887 47.6911718,37.5364887 L57.075238,37.5364887 C60.3075488,37.5364887 62.9278831,34.9164743 62.9278831,31.6841635 C62.9278831,28.304057 60.1619924,25.5381664 56.781566,25.5381664" id="Fill-37" fill="#659AD1"></path>
                    <path d="M69.3593626,13.9427313 C69.3593626,12.4689332 68.2697693,11.222267 66.8094072,11.0248862 L65.529471,10.8246262 C64.6967607,10.6944253 63.9437065,11.3383922 63.9437065,12.1816593 L63.9437065,37.0679572 C63.9437065,37.9112243 64.6967607,38.5555111 65.529471,38.4249903 L66.8094072,38.2247303 C68.2854446,37.9716862 69.3593626,36.7806833 69.3593626,35.3068852 L69.3593626,13.9427313 Z" id="Fill-39" fill="#659AD1"></path>
                </g>
            </g>
        </g>
    </g>
</svg>