<svg xmlns="http://www.w3.org/2000/svg" xmlns:xlink="http://www.w3.org/1999/xlink" viewBox="0 0 206.96 177.72"><defs><style>.cls-1{fill:url(#linear-gradient);}.cls-2{fill:url(#linear-gradient-2);}.cls-3{fill:url(#linear-gradient-3);}.cls-4{fill:url(#linear-gradient-4);}.cls-5{fill:url(#linear-gradient-5);}.cls-6{fill:url(#linear-gradient-6);}.cls-7{fill:url(#linear-gradient-7);}.cls-8{fill:url(#linear-gradient-8);}.cls-9{fill:url(#linear-gradient-9);}.cls-10{fill:url(#linear-gradient-10);}</style><linearGradient id="linear-gradient" x1="93.77" y1="0.41" x2="110.99" y2="150.73" gradientUnits="userSpaceOnUse"><stop offset="0" stop-color="#006fbc"/><stop offset="0.47" stop-color="#033586"/><stop offset="0.82" stop-color="#041064"/><stop offset="1" stop-color="#050257"/></linearGradient><linearGradient id="linear-gradient-2" x1="48.54" y1="6.35" x2="47.93" y2="73.68" gradientUnits="userSpaceOnUse"><stop offset="0" stop-color="#fff"/><stop offset="0.23" stop-color="#d8effc"/><stop offset="0.94" stop-color="#00afeb"/></linearGradient><linearGradient id="linear-gradient-3" x1="86.19" y1="6.69" x2="85.57" y2="74.75" gradientUnits="userSpaceOnUse"><stop offset="0" stop-color="#fff"/><stop offset="0.2" stop-color="#fff89b"/><stop offset="0.91" stop-color="#f8b500"/></linearGradient><linearGradient id="linear-gradient-4" x1="117.65" y1="7.01" x2="117.03" y2="75.51" gradientUnits="userSpaceOnUse"><stop offset="0" stop-color="#fff"/><stop offset="0.23" stop-color="#fffaba"/><stop offset="0.29" stop-color="#f0f2a4"/><stop offset="0.45" stop-color="#cee274"/><stop offset="0.6" stop-color="#b4d54e"/><stop offset="0.74" stop-color="#a1cc33"/><stop offset="0.86" stop-color="#96c623"/><stop offset="0.95" stop-color="#92c41d"/></linearGradient><linearGradient id="linear-gradient-5" x1="162.06" y1="7.56" x2="161.44" y2="76.6" gradientUnits="userSpaceOnUse"><stop offset="0" stop-color="#fff"/><stop offset="0.15" stop-color="#fef6f9"/><stop offset="0.31" stop-color="#fbe6ef"/><stop offset="0.95" stop-color="#ed80af"/><stop offset="1" stop-color="#ec7aac"/></linearGradient><linearGradient id="linear-gradient-6" x1="32.18" y1="55.61" x2="31.57" y2="138.79" gradientUnits="userSpaceOnUse"><stop offset="0" stop-color="#fff"/><stop offset="0.29" stop-color="#fffaba"/><stop offset="0.59" stop-color="#c5dd66"/><stop offset="0.81" stop-color="#a0cb31"/><stop offset="0.92" stop-color="#92c41d"/></linearGradient><linearGradient id="linear-gradient-7" x1="74.27" y1="56.77" x2="73.67" y2="139.74" gradientUnits="userSpaceOnUse"><stop offset="0" stop-color="#fff"/><stop offset="0.3" stop-color="#e6f4fd"/><stop offset="0.63" stop-color="#87b2db"/><stop offset="0.87" stop-color="#4b88c5"/><stop offset="0.98" stop-color="#3478bd"/></linearGradient><linearGradient id="linear-gradient-8" x1="124.93" y1="57.75" x2="124.32" y2="141.4" gradientUnits="userSpaceOnUse"><stop offset="0" stop-color="#fbe6ef"/><stop offset="0.27" stop-color="#fff"/><stop offset="0.48" stop-color="#f8cee0"/><stop offset="0.72" stop-color="#f2a1c4"/><stop offset="0.9" stop-color="#ee85b3"/><stop offset="1" stop-color="#ec7aac"/></linearGradient><linearGradient id="linear-gradient-9" x1="173.98" y1="58.85" x2="173.37" y2="142.49" gradientUnits="userSpaceOnUse"><stop offset="0" stop-color="#fff"/><stop offset="0.25" stop-color="#fff89b"/><stop offset="0.91" stop-color="#f8b500"/></linearGradient><linearGradient id="linear-gradient-10" x1="22.13" y1="157.57" x2="184.2" y2="157.57" gradientUnits="userSpaceOnUse"><stop offset="0" stop-color="#d8effc"/><stop offset="0.34" stop-color="#f2abca"/><stop offset="0.65" stop-color="#ffd900"/><stop offset="1" stop-color="#99d2f3"/></linearGradient></defs><title>资源 1</title><g id="图层_2" data-name="图层 2"><g id="图层_1-2" data-name="图层 1"><path class="cls-1" d="M198.86,77.84a30.45,30.45,0,0,0-10.59-7.36,18.74,18.74,0,0,0,1.9-9.85,19.31,19.31,0,0,0-6.86-13.5c.12-.12.23-.23.34-.36a12.52,12.52,0,0,0,3.06-11C184.48,24,171.36,18.11,160.84,16.63A26.33,26.33,0,0,0,147,18.28c-.05-.8-.1-1.6-.16-2.4A16.84,16.84,0,0,0,132.24.09a13.5,13.5,0,0,0-10.93,3.53,14.89,14.89,0,0,0-4.42,11.72c.06,1.11.11,2.11.16,3.05-.61-.07-1.24-.12-1.9-.16a25.07,25.07,0,0,0-11.61,2.09,17.42,17.42,0,0,0-4.36-12A17,17,0,0,0,86.91,2.58,17.56,17.56,0,0,0,75.58,6.25a15.4,15.4,0,0,0-10.06-4h0c-5.25,0-9.28,2.17-13.46,7.2q-3.49,4-7,8.08a16.37,16.37,0,0,0-4.87-10A15.48,15.48,0,0,0,28.37,3.35C19.15,3.89,12.89,11,13.13,20.67v.09c.48,13.53,1.41,26,2.82,38-.35,0-.69,0-1,0a15.64,15.64,0,0,0-11.56,4.9A13.93,13.93,0,0,0,.06,74.25a.49.49,0,0,0,0,.12A369.64,369.64,0,0,0,7.54,120.6l0,.11c1.8,7.51,9,13.38,17.13,14s16.42,1.09,24.54,1.45l.4,0a14.35,14.35,0,0,0,10.51-3.62,33.81,33.81,0,0,0,16.22,4.79h.28c9.78.18,17.84-4.8,23.19-12a34.32,34.32,0,0,0,2.69,3,31.49,31.49,0,0,0,21.26,9.28h.73a31.89,31.89,0,0,0,16-4.19,14.36,14.36,0,0,0,3.64,8.65,14.06,14.06,0,0,0,9.95,4.57h.17a14.67,14.67,0,0,0,15-12.89c.12-1,.24-1.9.34-2.75,1,.12,2.12.18,3.29.2,17.63.22,31.75-15.27,33.83-29.95A28.46,28.46,0,0,0,198.86,77.84Z"/><path class="cls-2" d="M21.26,20.74c-.13-5.64,3.21-8.82,7.81-9.08S36.93,14.25,37,20c.06,7.68.16,11.39.47,18.56Q47.64,27.34,58.37,14.94c3.14-3.79,5.05-4.34,7.32-4.34,3.41,0,7.51,3.73,7.36,8.15-.07,2.42-1.53,4.69-3.15,6.44Q60.81,34.49,52.06,43c6.69,6.63,13.09,12.88,19.2,18.82,2.16,2.08,3.87,3.68,3.89,5.91,0,3.79-3.26,5.75-7,5.71-3.6,0-6.36-2.85-8.69-5Q49.25,59.17,38,48.69q.6,9.57,1.62,18.42c.46,4.11-2.22,6.15-6.34,6.13s-7.52-2-8.15-6.12A440.77,440.77,0,0,1,21.26,20.74Z"/><path class="cls-3" d="M86.79,11a8.64,8.64,0,0,1,8.33,9.43,9.19,9.19,0,0,1-9.58,8.23c-4.93-.15-8.82-4-8.53-8.82A9.55,9.55,0,0,1,86.79,11ZM77.44,39.46c.17-3.8,3.42-6.86,7.84-6.73s7.18,3.33,6.91,7.11Q91.08,55.1,90.33,68.33c-.17,3-3,5.29-7,5.24s-6.76-2.43-6.73-5.43C76.73,59.24,77,49.7,77.44,39.46Z"/><path class="cls-4" d="M140.51,68a6.26,6.26,0,0,1-6.67,6.43,7.22,7.22,0,0,1-6.35-4.24c-3,3.47-6.54,4.83-11.72,4.73C103,74.65,93.94,61.76,93.85,50.44c-.08-10.92,8-24.53,21-23.79a17,17,0,0,1,11.25,4.59c-.26-6.44-.4-9.68-.74-16.19-.21-4,2.25-6.93,6-6.51s6.64,3.91,6.93,7.83C139.54,34,140.26,51.11,140.51,68ZM107.89,50.85c.1,6.17,3.56,11.36,9.68,11.54s9.32-4.73,9.18-10.79-3.61-11.44-9.63-11.75S107.79,44.63,107.89,50.85Z"/><path class="cls-5" d="M148.76,59.34c4.83.13,8.44,4.15,14.88,4.3,3,.07,4.09-1.18,4-2.54-.18-2.74-3.46-3.11-12.13-6.62-8.2-3.31-12.81-6.33-13.66-14.23-1.06-9.89,7.77-16.64,17.89-15.19,7.38,1.05,17.09,5,18.46,12.21.61,3.19-1.94,5.56-5.41,5.27-2.93-.25-7.72-4.17-12.36-4.56-2.05-.18-4.28,1.3-3.66,2.73,3.17,7.38,23.84,7.37,24.79,20.37.66,9-9.11,14.13-17.87,14.15-6.88,0-19.49-2-20.75-9.31A5.7,5.7,0,0,1,148.76,59.34Z"/><path class="cls-6" d="M8.07,74c-.37-4.55,2.82-6.94,7.36-7s8,2.18,8.37,6.84c1.36,13.34,3.33,26.74,5.95,40.44,6.73.29,10.09.41,16.78.61,4.9.15,8.21,2.69,9,6.86s-1.51,6.61-6.35,6.39q-12.14-.53-24.35-1.4c-4-.29-8.45-3-9.5-7.43A362.37,362.37,0,0,1,8.07,74Z"/><path class="cls-7" d="M98.68,103.53c0,12.12-8.87,25.89-22.27,25.67-13.64-.23-25.1-12.23-27-25.63-2-14.23,9.64-27.29,24.08-27.13C88.58,76.62,98.66,89.54,98.68,103.53Zm-34.09.19c.52,6.69,4.55,12.2,10.85,12.16s9.38-5.54,9.16-12.17-3.94-12.47-10.52-12.5S64.05,96.91,64.59,103.72Z"/><path class="cls-8" d="M149.15,104c-.48,13.05-10.58,25.41-25,25.4-14,0-24.09-13.34-24.16-25.8C100,90.3,110,78.48,124.4,78.36,138.48,78.24,149.62,90.93,149.15,104Zm-34.65-.12c0,6.51,3.55,12,9.89,12s10-5.38,10.09-11.87-3.47-11.94-10-12S114.46,97.32,114.5,103.84Z"/><path class="cls-9" d="M151,84.76A6.7,6.7,0,0,1,157.7,78,6.79,6.79,0,0,1,164.05,82c3.21-3.68,7-5.08,12.36-5.32,12.92-.56,23.37,11.45,21.72,23.19-1.62,11.55-12.85,23.13-25.44,23-5.6-.06-8.27-1.7-10.4-3.54-.52,5.28-.82,7.9-1.48,13.09a6.63,6.63,0,0,1-6.73,6c-3.41-.12-5.5-3-5.22-6.35Q150.63,109.05,151,84.76Zm32,15.4c.58-6-2.72-10.89-9.14-10.8-6.24.09-9.78,5.07-10.12,11S166.26,111,172.23,111C178.37,111,182.45,106.06,183,100.16Z"/><path class="cls-10" d="M103.16,177.72c-31.16,0-59.87-10.15-78.75-27.84a7.2,7.2,0,0,1,9.84-10.51c16,15,41.77,23.95,68.91,23.95s52.91-9,68.92-23.95a7.2,7.2,0,0,1,9.84,10.51C163,167.57,134.33,177.72,103.16,177.72Z"/></g></g></svg>