<?xml version="1.0" encoding="UTF-8"?>
<svg width="24px" height="24px" viewBox="0 0 24 24" version="1.1" xmlns="http://www.w3.org/2000/svg" xmlns:xlink="http://www.w3.org/1999/xlink">
    <title>highlight-24px</title>
    <g id="home-没有list" stroke="none" stroke-width="1" fill="none" fill-rule="evenodd">
        <g id="Assessments" transform="translate(-1097.000000, -125.000000)">
            <g id="highlight-24px" transform="translate(1097.000000, 125.000000)">
                <polygon id="路径" points="0 0 24 0 24 24 0 24"></polygon>
                <path d="M6,14 L9,17 L9,22 L15,22 L15,17 L18,14 L18,9 L6,9 L6,14 Z M8,11 L16,11 L16,13.17 L13,16.17 L13,20 L11,20 L11,16.17 L8,13.17 L8,11 Z M11,2 L13,2 L13,5 L11,5 L11,2 Z M3.502,5.874 L4.916,4.46 L7.038,6.58 L5.624,7.995 L3.502,5.874 Z M16.96,6.582 L19.083,4.462 L20.496,5.878 L18.373,7.998 L16.96,6.582 Z" id="形状" fill="#0E78D5" fill-rule="nonzero"></path>
            </g>
        </g>
    </g>
</svg>