<?xml version="1.0" encoding="UTF-8"?>
<svg width="338px" height="161px" viewBox="0 0 338 161" version="1.1" xmlns="http://www.w3.org/2000/svg" xmlns:xlink="http://www.w3.org/1999/xlink">
    <title>material</title>
    <g id="home-没有list" stroke="none" stroke-width="1" fill="none" fill-rule="evenodd">
        <g id="thumbnail-默认" transform="translate(-186.000000, -1252.000000)">
            <g id="material" transform="translate(186.000000, 1252.000000)">
                <g id="编组-10">
                    <rect id="矩形备份-15" fill="#4CAF50" x="0" y="0" width="338" height="161"></rect>
                    <rect id="矩形" x="128" y="42" width="80" height="80"></rect>
                </g>
                <g id="layers-24px" transform="translate(125.000000, 41.000000)">
                    <polygon id="路径" points="0 0 88 0 88 80 0 80"></polygon>
                    <path d="M43.9692789,62.1298848 L20.0353244,45.1928178 C18.2642384,43.9394937 15.895185,43.9397103 14.1243282,45.1933582 C12.9688606,46.0113518 12.6952839,47.6111583 13.5132775,48.7666259 C13.6809132,49.0034219 13.8875322,49.2100409 14.1243282,49.3776766 L42.8501647,69.7136434 C43.5425897,70.2038339 44.4689387,70.2038339 45.1613636,69.7136434 L73.8672164,49.3918237 C75.0315165,48.5675773 75.3071845,46.9555418 74.4829381,45.7912417 C74.3144349,45.5532203 74.1068396,45.3454536 73.8689575,45.1767538 C72.08752,43.9134049 69.702598,43.9124197 67.9201174,45.1742965 L43.9692789,62.1298848 L43.9692789,62.1298848 Z M45.7391065,52.4665494 L70.8589228,34.6661446 L70.8589228,34.6661446 L73.3712017,32.8953658 C74.7254569,31.9408194 75.049485,30.0691659 74.0949387,28.7149107 C73.8981249,28.4356826 73.6550645,28.1921217 73.3762418,27.994734 L45.7391634,8.42953486 C44.7005259,7.69424917 43.3110024,7.69424917 42.272365,8.42953486 L14.6247048,28.0022251 C13.2724159,28.9595551 12.9522383,30.8318711 13.9095683,32.18416 C14.1052781,32.4606126 14.3463918,32.7019256 14.6226826,32.8978637 L17.1161203,34.6661446 L17.1161203,34.6661446 L42.2716357,52.4676596 C43.3106545,53.2029301 44.7005587,53.2024851 45.7391065,52.4665494 Z M44.0057642,15.60425 L64.9483091,30.4486174 L44.0057642,45.2929849 L23.0632193,30.4486174 L44.0057642,15.60425 Z" id="形状" fill="#FFFFFF" fill-rule="nonzero"></path>
                </g>
            </g>
        </g>
    </g>
</svg>