<?xml version="1.0" encoding="UTF-8"?>
<svg width="338px" height="161px" viewBox="0 0 338 161" version="1.1" xmlns="http://www.w3.org/2000/svg" xmlns:xlink="http://www.w3.org/1999/xlink">
    <title>music</title>
    <g id="home-没有list" stroke="none" stroke-width="1" fill="none" fill-rule="evenodd">
        <g id="thumbnail-默认" transform="translate(-186.000000, -548.000000)">
            <g id="music" transform="translate(186.000000, 548.000000)">
                <rect id="矩形备份-14" fill="#009688" x="0" y="0" width="338" height="161"></rect>
                <g id="music_video-24px" transform="translate(129.000000, 41.000000)">
                    <polygon id="路径" points="0 0 80 0 80 80 0 80"></polygon>
                    <path d="M70,10 L10,10 C6.33333333,10 3.33333333,13 3.33333333,16.6666667 L3.33333333,63.3333333 C3.33333333,67 6.33333333,70 10,70 L70,70 C73.6666667,70 76.6666667,67 76.6666667,63.3333333 L76.6666667,16.6666667 C76.6666667,13 73.6666667,10 70,10 Z M70,63.3333333 L10,63.3333333 L10,16.6666667 L70,16.6666667 L70,63.3333333 Z M26.6666667,50 C26.6666667,44.4666667 31.1333333,40 36.6666667,40 C37.8333333,40 38.9666667,40.2333333 40,40.6 L40,20 L56.6666667,20 L56.6666667,26.6666667 L46.6666667,26.6666667 L46.6666667,50.1 C46.6,55.5666667 42.1666667,60 36.6666667,60 C31.1333333,60 26.6666667,55.5333333 26.6666667,50 Z" id="形状" fill="#FFFFFF" fill-rule="nonzero"></path>
                </g>
            </g>
        </g>
    </g>
</svg>