<?xml version="1.0" encoding="UTF-8"?>
<svg width="24px" height="24px" viewBox="0 0 24 24" version="1.1" xmlns="http://www.w3.org/2000/svg" xmlns:xlink="http://www.w3.org/1999/xlink">
    <title>broken_link-01</title>
    <g id="home-没有list" stroke="none" stroke-width="1" fill="none" fill-rule="evenodd">
        <g id="create-lesson-plan-没有搜索结果" transform="translate(-1322.000000, -765.000000)" fill="#FFFFFF" fill-rule="nonzero">
            <g id="编组-8" transform="translate(1228.000000, 686.000000)">
                <g id="deleted" transform="translate(0.000000, 34.000000)">
                    <g id="broken_link-01" transform="translate(94.000000, 45.000000)">
                        <polygon id="路径" points="15.8162616 6.52112269 6.88686343 15.4490741 8.37905093 16.9401042 17.307581 8.01244213"></polygon>
                        <path d="M15.447338,19.1686921 L13.9565972,17.677662 L12.2815394,19.3527199 C10.1258903,21.5082168 6.63105411,21.5082168 4.47540509,19.3527199 C2.32320602,17.2005208 2.32320602,13.6987847 4.47540509,11.5465856 L6.15046296,9.87152778 L4.65856481,8.38078704 L2.98206019,10.0572917 L2.89525463,10.1440972 C0.983997389,12.0872457 0.254580272,14.9024326 0.981767654,17.5292042 C1.70895504,20.1559758 3.78226985,22.1952629 6.42071446,22.8788859 C9.05915907,23.562509 11.861891,22.7866092 13.7731481,20.8434606 L15.447338,19.1686921 Z M21.2094907,13.4074074 C24.1676574,10.4250304 24.1581087,5.61234052 21.1881309,2.64172539 C18.2181531,-0.328889743 13.4054653,-0.339471103 10.4224537,2.61805556 L8.74739583,4.29282407 L10.2381366,5.78385417 L11.9131944,4.1087963 C14.0688435,1.95329943 17.5636797,1.95329943 19.7193287,4.1087963 C21.8715278,6.26099537 21.8715278,9.76273148 19.7193287,11.9149306 L18.0442708,13.5899884 L19.5353009,15.0807292 L21.2094907,13.4074074 Z M0.0170717593,5.39265046 L4.87210648,5.39265046 L4.87210648,7.4759838 L0.0170717593,7.4759838 L0.0170717593,5.39265046 Z M5.52155671,0.0248263889 L7.60483218,0.00954861111 L7.63819444,4.56122685 L5.55491898,4.57650463 L5.52155671,0.0248263889 Z M19.0726273,16.4085648 L23.927662,16.4085648 L23.927662,18.4918981 L19.0726273,18.4918981 L19.0726273,16.4085648 Z M16.3071181,19.3225694 L18.3903935,19.3072917 L18.4237558,23.8589699 L16.3404803,23.8742477 L16.3071181,19.3225694 Z" id="形状"></path>
                    </g>
                </g>
            </g>
        </g>
    </g>
</svg>