<?xml version="1.0" encoding="UTF-8"?>
<svg width="162px" height="155px" viewBox="0 0 162 155" version="1.1" xmlns="http://www.w3.org/2000/svg" xmlns:xlink="http://www.w3.org/1999/xlink">
    <title>编组 29</title>
    <g id="旧版设计稿" stroke="none" stroke-width="1" fill="none" fill-rule="evenodd">
        <g id="编组-29">
            <circle id="椭圆形" fill="#E1F1FE" cx="84.5" cy="77.5" r="77.5"></circle>
            <g id="编组-28" transform="translate(0.000000, 47.000000)">
                <path d="M20,0 L124,0 L124,16 C124,57.4213562 90.4213562,91 49,91 L20,91 L20,91 L20,0 Z" id="矩形" fill="#40B8F5"></path>
                <g id="编组-27">
                    <g id="编组-26" transform="translate(0.000000, 13.000000)" fill="#9DDBF4">
                        <path d="M0,-1.27329258e-11 C20.0149468,-1.27329258e-11 31.6223924,-1.27329258e-11 34.8223368,-1.27329258e-11 C39.6222534,-1.27329258e-11 39.9971433,12.868895 45.2906389,12.868895 C48.3924279,12.868895 63.6288815,12.868895 90.9999996,12.868895 C97.6274168,12.8688945 103,18.2414777 103,24.868895 L103,78 L103,78 L13,78 C5.82029825,78 8.79259876e-16,72.1797017 0,65 L0,-1.27329258e-11 L0,-1.27329258e-11 Z" id="矩形"></path>
                        <rect id="矩形" x="94" y="66" width="20" height="12"></rect>
                    </g>
                    <path d="M103,0 L124,0 L124,80.5 C124,86.2989899 119.29899,91 113.5,91 C107.70101,91 103,86.2989899 103,80.5 L103,0 L103,0 Z" id="矩形" fill="#40B8F5"></path>
                </g>
            </g>
            <path d="M117.474383,82.0565862 C118.69607,82.0565862 123.423693,78.3789932 124.600525,78.2146904 C137.255889,76.4478184 147,65.5008773 147,52.2602498 C147,37.788366 135.359403,26.0565862 121,26.0565862 C106.640597,26.0565862 95,37.788366 95,52.2602498 C95,65.5269897 104.782583,76.4909873 117.474383,78.2250368 C118.6273,78.382557 116.278606,82.0565862 117.474383,82.0565862 Z" id="椭圆形" fill="#FFFFFF"></path>
            <g id="guanbi-4" transform="translate(111.000000, 42.000000)" fill="#40B8F5" fill-rule="nonzero">
                <path d="M13.5854934,10.4994473 L20.2008179,3.88412288 C21.1712865,2.91365423 21.2707651,1.42589705 20.4218814,0.57701331 C19.5729976,-0.27187043 18.0841351,-0.172391867 17.1147718,0.798076784 L10.4994473,7.41340124 L3.88412288,0.798076784 C2.91365423,-0.172391867 1.42589705,-0.27187043 0.57701331,0.578118628 C-0.27187043,1.42810769 -0.172391867,2.91586487 0.798076784,3.8852282 L7.41340124,10.5005527 L0.798076784,17.1158771 C-0.172391867,18.0863458 -0.27187043,19.5741029 0.578118628,20.4229867 C1.42810769,21.2718704 2.91586487,21.1723919 3.8852282,20.2019232 L10.5005527,13.5865988 L17.1158771,20.2019232 C18.0863458,21.1723919 19.5741029,21.2718704 20.4229867,20.4229867 C21.2718704,19.5741029 21.1723919,18.0852405 20.2019232,17.1158771 L13.5865988,10.5005527 L13.5854934,10.4994473 Z" id="路径"></path>
            </g>
        </g>
    </g>
</svg>