<svg width="122" height="148" fill="none" xmlns="http://www.w3.org/2000/svg"><path d="M3.735 28.416l9.517 2.76M28.027 3.73l2.66 9.53M12.669 14.767l7.425 6.504" stroke="#FFBA08" stroke-width="5" stroke-linecap="round" stroke-linejoin="round"/><path d="M72.683 28.624c-6.783 0-23.994 0-30.866.314-6.873.313-10.802 4.34-11.579 8.204-.777 3.863-1.18 35.948-1.18 47.165v5.967c0 11.217.388 43.257 1.18 47.165.792 3.908 4.706 7.801 11.579 8.189 6.872.388 24.083.463 30.866.463 6.783 0 27.728 0 34.601-.314 6.872-.313 10.802-4.34 11.578-8.204.381-3.403.591-6.823.628-10.247v-4.132c.179-7.026.299-15.379.373-22.374l.15-8.801v-4.624-4.624l-.15-8.8c0-3.596-.089-7.549-.149-11.516L91.328 28.669c-7.276-.03-15-.045-18.645-.045z" fill="#F7F7F7" stroke="#41A6DF" stroke-width="2.5" stroke-linecap="round" stroke-linejoin="round"/><path d="M94.974 57.025a10.107 10.107 0 01-5.797-7.25c-.461-3.416-.3-6.888.478-10.247.284-1.775.583-3.535.882-5.31.134-.79 1.389-4.982.956-5.519l28.385 33.786c-.567-.672-4.048-.776-4.9-.94l-6.618-1.223c-4.273-.82-9.442-1.313-13.386-3.297z" fill="#41A6DF" stroke="#41A6DF" stroke-width="2.5" stroke-linecap="round" stroke-linejoin="round"/><path d="M74.177 65.721A26.645 26.645 0 0055.41 73.45a26.56 26.56 0 00-7.856 18.69h26.892V65.735l-.269-.015z" fill="#46ADE8"/><path d="M47.494 92.138v.164a26.495 26.495 0 006.41 17.303l20.422-17.467H47.494z" fill="#2689DD"/><path d="M100.785 92.138a26.544 26.544 0 00-7.782-18.61 26.63 26.63 0 00-18.632-7.792v26.402l-20.423 17.467a26.63 26.63 0 0013.53 8.445 26.664 26.664 0 0015.935-.796 26.611 26.611 0 0012.618-9.75 26.544 26.544 0 004.769-15.202.567.567 0 00-.015-.164z" fill="#67C1ED"/></svg>