<?xml version="1.0" encoding="UTF-8"?>
<svg width="338px" height="190px" viewBox="0 0 338 190" version="1.1" xmlns="http://www.w3.org/2000/svg" xmlns:xlink="http://www.w3.org/1999/xlink">
    <title>pic</title>
    <g id="home-没有list" stroke="none" stroke-width="1" fill="none" fill-rule="evenodd">
        <g id="thumbnail-默认" transform="translate(-186.000000, -46.000000)">
            <g id="pic" transform="translate(186.000000, 46.000000)">
                <rect id="矩形" fill="#FFC107" x="0" y="0" width="338" height="190"></rect>
                <g id="photo-24px" transform="translate(129.000000, 55.000000)">
                    <polygon id="路径" points="0 0 80 0 80 80 0 80"></polygon>
                    <path d="M68.5185185,10 C72.9103704,10 76.5196741,12.8812 76.6622895,16.4474853 L76.6666667,16.6666667 L76.6666667,63.3333333 C76.6666667,66.9266667 73.1452,69.8797333 68.7864068,69.9964187 L68.5185185,70 L11.4814815,70 C7.08962963,70 3.48032593,67.1188 3.33771052,63.5525147 L3.33333333,63.3333333 L3.33333333,16.6666667 C3.33333333,13.0733333 6.8548,10.1202667 11.2135932,10.0035813 L11.4814815,10 L68.5185185,10 Z M70,16.6666667 L10,16.6666667 L10,63.3333333 L70,63.3333333 L70,16.6666667 Z M48.3222222,38.1 L63.3333333,58.1 L16.6666667,58.1 L28.3333333,43.0805447 L36.6555556,53.1583658 L48.3222222,38.1 Z M55,23.3333333 C57.7614237,23.3333333 60,25.5719096 60,28.3333333 C60,31.0947571 57.7614237,33.3333333 55,33.3333333 C52.2385763,33.3333333 50,31.0947571 50,28.3333333 C50,25.5719096 52.2385763,23.3333333 55,23.3333333 Z" id="形状结合" fill="#FFFFFF" fill-rule="nonzero"></path>
                </g>
            </g>
        </g>
    </g>
</svg>