<svg width="10" height="15" viewBox="0 0 10 15" fill="none" xmlns="http://www.w3.org/2000/svg">
<path d="M9.32353 5.68419L2.9939 0.42375C2.72592 0.200125 2.39945 0.0580431 2.05317 0.0143536C1.7069 -0.0293358 1.35535 0.0272009 1.04023 0.177258C0.725114 0.327315 0.45962 0.564596 0.275274 0.860964C0.0909274 1.15733 -0.00453629 1.50035 0.000165687 1.84934V12.3417C-0.00453629 12.6907 0.0909274 13.0337 0.275274 13.3301C0.45962 13.6264 0.725114 13.8637 1.04023 14.0138C1.35535 14.1638 1.7069 14.2204 2.05317 14.1767C2.39945 14.133 2.72592 13.9909 2.9939 13.7673L9.32353 8.50686C9.53468 8.3372 9.70507 8.12232 9.82215 7.87806C9.93922 7.6338 10 7.36639 10 7.09552C10 6.82466 9.93922 6.55724 9.82215 6.31298C9.70507 6.06873 9.53468 5.85385 9.32353 5.68419Z" fill="white"/>
</svg>
