<?xml version="1.0" encoding="UTF-8"?>
<svg width="24px" height="24px" viewBox="0 0 24 24" version="1.1" xmlns="http://www.w3.org/2000/svg" xmlns:xlink="http://www.w3.org/1999/xlink">
    <title>unpublished-24px</title>
    <g id="home-没有list" stroke="none" stroke-width="1" fill="none" fill-rule="evenodd">
        <g id="Assessments-pending" transform="translate(-1461.000000, -125.000000)">
            <g id="编组-4" transform="translate(1460.000000, 125.000000)">
                <g id="unpublished-24px" transform="translate(1.000000, 0.000000)">
                    <rect id="矩形" x="0" y="0" width="24" height="24"></rect>
                    <path d="M7.94,5.12 L6.49,3.66 C8.07,2.61 9.96,2 12,2 C17.52,2 22,6.48 22,12 C22,14.04 21.39,15.93 20.34,17.51 L18.88,16.05 C19.59,14.86 20,13.48 20,12 C20,7.59 16.41,4 12,4 C10.52,4 9.14,4.41 7.94,5.12 Z M17.66,9.53 L16.25,8.12 L13.6,10.77 L15.01,12.18 L17.66,9.53 Z M19.78,22.61 L17.51,20.34 C15.93,21.39 14.04,22 12,22 C6.48,22 2,17.52 2,12 C2,9.96 2.61,8.07 3.66,6.49 L1.39,4.22 L2.8,2.81 L21.18,21.19 L19.78,22.61 Z M16.06,18.88 L12.18,15 L10.59,16.59 L6.35,12.35 L7.76,10.94 L10.59,13.77 L10.77,13.59 L5.12,7.94 C4.41,9.14 4,10.52 4,12 C4,16.41 7.59,20 12,20 C13.48,20 14.86,19.59 16.06,18.88 Z" id="形状" fill="#000000" fill-rule="nonzero"></path>
                </g>
            </g>
        </g>
    </g>
</svg>